<svg xmlns="http://www.w3.org/2000/svg" viewBox="0 0 64 64" width="64" height="64">
  <rect x="0" y="0" width="64" height="64" fill="#FAFAFA"/>
  
  <rect x="4" y="4" width="56" height="56" rx="4" fill="#F0F0F0" stroke="#122640" stroke-width="2"/>
  
  <g stroke="rgba(30, 58, 95, 0.1)" stroke-width="1.5" fill="none">
    <line x1="14" y1="8" x2="14" y2="56"/><line x1="20" y1="8" x2="20" y2="56"/>
    <line x1="26" y1="8" x2="26" y2="56"/><line x1="32" y1="8" x2="32" y2="56"/>
    <line x1="38" y1="8" x2="38" y2="56"/><line x1="44" y1="8" x2="44" y2="56"/>
    <line x1="50" y1="8" x2="50" y2="56"/>
    <line x1="8" y1="14" x2="56" y2="14"/><line x1="8" y1="20" x2="56" y2="20"/>
    <line x1="8" y1="26" x2="56" y2="26"/><line x1="8" y1="32" x2="56" y2="32"/>
    <line x1="8" y1="38" x2="56" y2="38"/><line x1="8" y1="44" x2="56" y2="44"/>
    <line x1="8" y1="50" x2="56" y2="50"/>
  </g>

  <rect x="8" y="8" width="48" height="48" fill="none" stroke="#122640" stroke-width="1.5" rx="1"/>

  <g stroke="#122640" stroke-width="2" stroke-linecap="square">
    <line x1="4" y1="32" x2="7" y2="32" />
    <line x1="57" y1="32" x2="60" y2="32" />
  </g>

  <path d="M 8 32 L 8 16 L 20 16 L 20 48 L 32 48 L 32 16 L 44 16 L 44 48 L 56 48 L 56 32" fill="none" stroke="#1E3A5F" stroke-width="4" stroke-linejoin="miter" stroke-linecap="square"/>
</svg>