<svg xmlns="http://www.w3.org/2000/svg" width="1024" height="1024" viewBox="0 0 1024 1024">
<g>
<path d="M 226.61 767.69 C228.29,768.75 228.10,768.89 225.00,768.91 C220.05,768.96 216.00,766.21 216.00,762.82 C216.00,761.32 215.37,759.74 214.61,759.30 C213.84,758.86 212.49,756.76 211.61,754.64 C210.16,751.15 209.75,750.85 207.26,751.46 C205.74,751.84 204.35,752.56 204.17,753.07 C203.98,753.58 203.17,754.00 202.36,754.00 C201.55,754.00 201.12,754.38 201.40,754.84 C201.69,755.31 201.42,757.45 200.80,759.59 C200.19,761.74 199.76,764.62 199.84,766.00 C200.00,768.40 199.93,768.37 198.08,765.35 C197.70,764.74 197.36,764.25 197.05,763.74 C193.35,757.74 193.52,749.37 193.24,519.50 C193.04,359.44 193.28,282.33 193.99,277.68 C196.65,260.35 209.35,246.55 225.80,243.11 C229.61,242.31 310.61,242.00 513.44,242.00 C791.82,242.00 795.88,242.03 802.19,243.98 C810.40,246.51 817.20,251.05 822.13,257.28 C825.19,261.15 825.80,262.54 824.91,263.61 C823.99,264.72 822.61,263.79 817.64,258.74 C814.26,255.31 811.88,252.34 812.35,252.13 C812.81,251.93 811.24,250.62 808.85,249.22 C805.10,247.02 802.71,246.55 791.50,245.80 C778.42,244.93 712.95,244.42 653.50,244.73 C635.90,244.82 537.19,244.80 434.15,244.70 C331.11,244.59 246.60,244.84 246.35,245.25 C246.09,245.66 242.42,246.03 238.19,246.07 C232.60,246.12 231.05,246.40 232.50,247.08 C233.85,247.72 232.19,247.84 227.38,247.46 C220.82,246.95 220.03,247.10 217.27,249.42 C215.63,250.81 213.97,251.63 213.59,251.25 C213.21,250.87 213.22,251.41 213.62,252.44 C214.12,253.76 213.98,254.11 213.17,253.61 C212.53,253.21 212.00,253.39 212.00,254.00 C212.00,254.61 211.56,254.84 211.01,254.51 C210.44,254.16 210.28,254.56 210.62,255.46 C211.05,256.56 210.78,256.85 209.72,256.44 C207.86,255.73 205.00,259.54 205.00,262.72 C205.00,263.98 204.57,265.00 204.04,265.00 C203.50,265.00 202.55,265.98 201.90,267.18 C200.96,268.95 201.09,270.03 202.61,272.93 C203.64,274.89 204.94,276.82 205.49,277.22 C206.81,278.16 210.78,277.42 212.61,275.91 C214.64,274.22 215.23,275.26 214.03,278.43 C213.33,280.25 213.00,356.90 213.00,513.85 C213.00,706.21 213.23,747.43 214.35,751.53 C215.09,754.26 215.88,757.15 216.10,757.94 C216.50,759.38 223.02,765.43 226.61,767.69 ZM 199.34 748.17 C200.41,749.89 200.52,749.89 201.17,748.25 C201.55,747.29 201.89,745.33 201.93,743.90 C201.97,742.46 203.17,740.02 204.61,738.47 C206.05,736.93 207.38,734.27 207.57,732.58 C207.77,730.89 208.26,727.70 208.67,725.50 L 209.42 721.50 L 210.07 725.50 C210.46,727.90 210.77,724.20 210.86,716.25 C210.95,707.99 210.62,703.00 210.00,703.00 C209.36,703.00 209.08,695.73 209.21,682.75 L 209.43 662.50 L 210.00 679.50 C210.41,691.80 210.59,686.40 210.64,660.00 C210.67,639.92 210.38,625.53 210.00,628.00 C209.45,631.53 209.28,630.44 209.22,623.00 C209.17,616.88 209.45,614.21 210.00,615.50 C210.51,616.68 210.80,607.20 210.73,592.50 C210.62,572.00 210.49,569.84 210.00,580.50 C209.57,589.95 209.37,585.31 209.27,563.50 C209.20,546.02 209.50,534.33 210.00,535.50 C210.60,536.90 210.85,535.71 210.83,531.50 C210.81,527.05 210.59,526.15 210.00,528.00 C209.38,529.93 209.18,529.25 209.11,525.00 C209.06,521.11 209.31,519.94 210.00,521.00 C210.63,521.98 210.90,502.60 210.78,465.50 C210.68,434.15 210.33,414.12 210.00,421.00 L 209.41 433.50 L 209.20 423.75 C209.00,414.23 208.54,412.86 206.30,415.10 C205.50,415.90 205.02,415.63 204.53,414.10 C203.66,411.34 204.84,407.73 206.42,408.33 C207.11,408.59 207.72,408.29 207.77,407.65 C207.83,407.02 208.25,402.23 208.69,397.00 L 209.50 387.50 L 210.08 394.00 L 210.65 400.50 L 210.83 392.25 C210.93,387.30 210.60,384.00 210.00,384.00 C209.40,384.00 208.96,379.68 208.90,373.25 C208.81,363.60 207.49,348.70 207.14,353.37 C206.87,357.04 204.00,352.99 204.00,348.94 C204.00,346.84 203.55,344.84 203.00,344.50 C201.69,343.69 201.69,330.00 203.00,330.00 C203.55,330.00 204.00,329.33 204.00,328.50 C204.00,326.69 206.63,326.49 207.34,328.25 C207.62,328.94 207.84,327.02 207.84,324.00 C207.84,320.98 207.62,319.06 207.34,319.75 C206.63,321.51 204.00,321.31 204.00,319.50 C204.00,318.67 203.55,318.00 203.00,318.00 C202.45,318.00 202.00,317.10 202.00,316.00 C202.00,314.90 202.40,314.00 202.88,314.00 C203.37,314.00 204.05,312.99 204.40,311.75 C205.02,309.55 205.06,309.54 206.52,311.44 C207.88,313.23 208.00,312.96 208.00,308.00 C208.00,303.05 207.88,302.77 206.53,304.56 C205.72,305.63 205.04,306.05 205.01,305.50 C204.87,302.61 202.08,286.25 201.47,284.70 C200.81,283.06 200.62,283.10 199.14,285.20 C197.70,287.26 197.50,296.03 197.22,369.00 C197.05,413.83 197.00,475.25 197.11,505.50 C197.22,535.75 197.26,565.00 197.20,570.50 C197.14,576.00 197.11,602.55 197.12,629.50 L 197.16 694.50 C197.16,703.30 196.85,712.69 196.47,715.37 C195.63,721.29 197.75,745.63 199.34,748.17 ZM 799.21 788.09 C797.17,788.56 667.92,788.92 512.00,788.89 L 490.29 788.88 C228.54,788.82 221.41,788.82 217.81,785.26 C217.61,785.06 217.43,784.86 217.21,784.64 C215.88,783.31 216.16,783.06 219.61,782.44 C221.75,782.05 224.76,781.09 226.30,780.31 C227.84,779.53 229.92,779.16 230.93,779.48 C232.13,779.86 233.00,779.45 233.45,778.28 C233.82,777.30 234.06,776.33 233.98,776.11 C233.90,775.90 234.42,775.36 235.14,774.92 C236.14,774.29 236.03,773.95 234.64,773.41 C233.22,772.87 233.12,772.54 234.17,771.88 C235.04,771.32 234.32,771.03 232.05,771.02 C230.15,771.01 229.03,770.66 229.55,770.25 C230.07,769.84 357.17,769.73 512.00,770.00 C666.22,770.28 791.70,770.62 791.70,770.75 C791.70,770.75 791.69,770.75 791.69,770.75 C790.70,770.89 790.13,771.40 790.43,771.89 C791.32,773.33 787.84,773.75 779.42,773.21 C774.14,772.87 772.17,772.44 773.50,771.92 C773.51,771.92 773.51,771.92 773.51,771.92 C773.51,771.49 657.83,771.15 515.50,771.17 C373.34,771.19 257.99,771.56 257.99,771.99 C257.99,771.99 257.99,772.00 258.00,772.00 C259.84,772.59 258.65,772.86 253.50,773.02 C245.53,773.27 240.52,774.15 240.82,775.25 C241.38,777.24 239.59,781.00 237.81,781.56 C235.90,782.17 235.91,782.25 238.16,783.84 C240.21,785.30 245.38,785.56 280.00,786.00 C339.79,786.76 787.06,786.45 790.50,785.65 C792.15,785.26 796.34,784.74 799.80,784.49 C805.58,784.07 805.97,784.17 804.51,785.63 C803.63,786.51 801.24,787.62 799.21,788.09 ZM 509.58 540.67 C508.78,540.36 507.95,540.42 507.73,540.81 C506.62,542.73 508.44,537.98 514.74,522.50 C532.80,478.16 552.35,431.01 552.57,431.24 C552.70,431.38 552.40,435.55 551.90,440.50 C551.25,446.79 551.30,449.60 552.05,449.85 C552.65,450.05 553.54,451.29 554.04,452.60 C554.97,455.05 559.00,456.05 559.00,453.83 C559.00,453.19 559.26,452.93 559.58,453.25 C560.42,454.09 564.00,450.81 564.00,449.22 C564.00,446.99 568.86,437.43 570.97,435.53 C572.11,434.49 573.78,433.97 574.97,434.28 C576.09,434.57 577.00,434.49 577.00,434.10 C577.00,433.70 577.64,432.51 578.43,431.44 C579.80,429.57 579.89,429.59 580.90,432.25 L 581.95 435.00 L 594.42 435.00 C601.27,435.00 607.13,435.41 607.44,435.91 C607.76,436.42 618.48,436.78 631.75,436.73 C644.81,436.68 654.38,436.31 653.00,435.92 C651.62,435.52 660.62,435.16 673.00,435.10 L 695.50 435.01 L 698.80 438.10 C702.17,441.26 712.45,446.96 714.81,446.99 C715.53,446.99 715.82,447.49 715.45,448.09 C715.00,448.81 715.88,449.06 718.05,448.84 C720.05,448.63 721.50,448.99 721.75,449.75 C722.05,450.64 720.67,451.00 716.90,451.00 C710.27,451.00 704.11,448.12 699.68,442.93 L 696.35 439.04 L 632.80 438.77 C582.29,438.56 569.35,438.76 569.73,439.75 C570.00,440.44 569.69,441.00 569.05,441.00 C568.41,441.00 568.16,441.45 568.50,442.00 C568.84,442.55 568.61,443.00 568.00,443.00 C567.39,443.00 567.14,443.42 567.45,443.93 C567.98,444.77 566.24,449.83 565.02,451.00 C564.73,451.27 564.37,452.17 564.21,453.00 C564.05,453.83 562.04,459.12 559.75,464.78 C556.70,472.28 555.19,474.90 554.15,474.50 C552.97,474.05 552.94,474.23 553.98,475.48 C554.74,476.39 554.83,477.00 554.21,477.00 C552.66,477.00 552.14,474.75 553.22,472.66 C553.74,471.66 554.28,469.18 554.43,467.16 C554.57,465.15 555.04,462.42 555.46,461.10 C556.06,459.22 555.92,458.82 554.77,459.26 C553.97,459.56 552.70,459.43 551.94,458.96 C551.09,458.44 550.27,458.57 549.82,459.30 C549.29,460.15 548.67,459.93 547.66,458.55 C546.32,456.71 546.11,456.70 543.70,458.28 C541.70,459.59 541.01,461.08 540.49,465.22 C540.13,468.13 539.93,470.95 540.05,471.50 C540.40,473.12 538.82,478.99 537.87,479.58 C536.43,480.47 536.89,483.67 538.46,483.67 C539.26,483.67 539.68,483.29 539.40,482.83 C539.11,482.38 539.58,482.00 540.44,482.00 C541.30,482.00 542.04,481.44 542.10,480.75 C542.15,480.06 542.50,480.59 542.88,481.93 C543.83,485.33 545.36,485.50 548.52,482.57 C553.81,477.67 553.53,481.05 547.56,494.36 C546.12,497.58 544.27,500.87 543.47,501.68 C542.18,502.96 541.98,502.86 541.84,500.82 C541.76,499.54 541.75,497.83 541.83,497.00 C542.12,494.01 540.93,491.00 539.46,491.00 C538.63,491.00 537.53,489.88 537.01,488.52 C536.38,486.87 535.55,486.24 534.53,486.63 C533.69,486.95 533.00,487.64 533.00,488.17 C533.00,488.69 532.55,488.84 532.00,488.50 C531.08,487.93 530.88,488.37 530.59,491.73 C530.53,492.41 529.81,493.76 528.99,494.73 C528.10,495.79 527.44,498.83 527.34,502.28 C527.22,506.81 526.62,508.80 524.59,511.47 C523.17,513.34 522.00,515.30 522.00,515.83 C522.00,516.35 521.33,517.05 520.50,517.36 C519.67,517.68 519.00,518.65 519.00,519.53 C519.00,520.40 518.55,520.84 518.00,520.50 C517.44,520.15 517.00,520.93 517.00,522.26 C517.00,523.57 516.14,526.41 515.09,528.57 C514.04,530.72 513.36,532.78 513.58,533.13 C513.80,533.48 513.33,534.31 512.55,534.96 C511.76,535.61 511.39,536.86 511.73,537.74 C512.17,538.89 511.97,539.10 511.00,538.50 C510.00,537.88 509.83,538.13 510.34,539.45 C510.84,540.74 510.63,541.07 509.58,540.67 ZM 817.19 752.79 C816.25,752.60 814.06,753.96 812.25,755.86 C810.46,757.74 809.00,759.10 809.01,758.89 C809.02,758.68 809.69,756.29 810.51,753.59 C811.81,749.31 812.01,718.88 812.12,515.09 C812.18,387.29 812.45,283.49 812.72,283.49 C812.72,283.49 812.72,283.49 812.72,283.50 C812.99,284.60 813.63,286.01 814.13,286.63 C815.14,287.88 815.31,349.96 814.57,444.50 C814.31,477.50 814.11,513.28 814.12,524.00 C814.22,592.39 814.10,607.69 813.48,609.26 C813.09,610.23 813.09,612.48 813.48,614.26 C814.96,621.06 815.17,631.45 813.91,635.29 C813.11,637.71 812.99,639.40 813.59,639.83 C814.18,640.24 814.63,658.62 814.75,687.00 C814.96,734.40 815.23,739.97 817.46,743.51 C818.16,744.62 819.05,746.95 819.43,748.70 C819.82,750.44 820.77,752.40 821.56,753.05 C823.41,754.59 823.41,757.63 821.57,758.33 C819.77,759.02 817.59,756.50 818.33,754.58 C818.66,753.71 818.20,752.99 817.19,752.79 ZM 829.46 760.13 C828.60,762.71 827.29,765.06 826.55,765.34 C824.89,765.98 823.77,762.32 824.93,760.09 C825.38,759.21 826.07,755.84 826.47,752.59 C826.96,748.54 827.46,747.12 828.08,748.09 C828.60,748.92 828.98,687.57 828.98,598.75 C828.99,498.91 828.66,448.00 828.00,448.00 C827.45,448.00 827.01,447.21 827.02,446.25 C827.03,444.75 827.17,444.72 828.01,446.00 C829.10,447.66 828.83,391.01 827.56,353.70 C827.16,341.71 827.17,331.14 827.59,330.20 C828.62,327.92 829.04,298.32 828.02,299.97 C827.58,300.68 826.99,294.34 826.72,285.88 C826.44,277.42 825.91,269.04 825.55,267.25 C824.60,262.61 826.43,263.20 828.64,268.25 C830.43,272.35 830.51,281.13 830.76,513.97 C830.99,730.47 830.85,755.92 829.46,760.13 ZM 509.25 260.00 C288.52,260.00 232.06,260.25 231.66,261.25 C231.36,262.00 231.13,261.80 231.08,260.75 C231.02,259.51 231.81,258.97 233.75,258.88 C235.70,258.80 235.95,258.63 234.60,258.28 C233.20,257.92 233.04,257.59 234.00,257.00 C234.91,256.44 234.07,255.44 231.14,253.59 C228.86,252.15 227.00,250.53 227.00,249.99 C227.00,249.44 229.48,249.00 232.50,249.00 C235.52,249.00 238.00,248.62 238.00,248.16 C238.00,247.21 241.91,247.33 246.75,248.42 C250.15,249.19 251.28,251.94 248.25,252.08 C245.91,252.18 242.90,252.77 242.46,253.20 C241.33,254.34 244.32,256.24 248.11,256.80 L 252.50 257.45 L 248.50 258.08 C246.30,258.43 258.11,258.78 274.75,258.86 C295.36,258.95 305.00,258.66 305.00,257.95 C305.00,257.29 307.43,257.00 311.50,257.18 C315.08,257.34 318.00,257.81 318.00,258.22 C318.00,258.63 423.14,258.96 551.64,258.95 C680.14,258.95 785.51,259.18 785.80,259.47 L 785.80 259.47 C785.80,259.76 661.47,260.00 509.25,260.00 ZM 359.00 496.94 C355.43,503.84 353.96,504.72 356.39,498.50 C360.79,487.23 386.14,424.51 388.51,419.00 C389.82,415.98 393.20,407.65 396.04,400.50 L 396.44 399.49 C400.78,388.56 402.49,384.26 403.30,384.42 C403.85,384.53 403.99,386.71 404.26,390.28 C404.58,394.43 405.36,398.80 406.00,400.01 C406.65,401.21 407.02,404.63 406.84,407.60 C406.65,410.57 406.55,413.00 406.61,413.00 C406.68,413.00 408.03,411.09 409.61,408.75 C413.41,403.16 414.76,401.80 415.42,402.87 C416.13,404.02 408.60,422.55 406.62,424.53 C405.27,425.87 405.07,425.47 404.80,420.77 C404.53,416.02 404.28,415.51 402.25,415.62 C400.73,415.70 400.00,415.17 400.00,413.99 C400.00,413.03 399.33,411.68 398.50,411.00 C397.67,410.32 397.00,410.15 397.00,410.63 C397.00,411.11 395.65,412.40 394.00,413.50 C392.35,414.60 391.00,416.20 391.00,417.05 C391.00,417.90 390.62,419.03 390.15,419.55 C387.50,422.50 385.83,436.08 388.03,436.83 C388.56,437.02 389.00,437.98 389.00,438.97 C389.00,441.01 386.55,446.15 385.61,446.06 C383.57,445.86 382.95,446.11 383.45,446.91 C383.76,447.42 383.45,448.06 382.76,448.34 C381.96,448.66 382.10,448.87 383.14,448.92 C385.61,449.04 386.43,452.22 384.37,453.72 C382.94,454.76 382.32,454.70 380.82,453.34 C379.82,452.43 379.00,452.10 379.00,452.60 C378.99,453.09 377.64,454.94 376.00,456.70 C374.35,458.45 373.00,460.17 373.00,460.50 C373.00,460.84 372.15,463.00 371.10,465.30 C369.25,469.38 369.10,472.31 370.47,477.15 C370.93,478.80 370.85,479.09 370.17,478.11 C369.40,476.99 369.00,477.14 368.07,478.88 C367.43,480.06 366.82,482.44 366.71,484.17 C366.59,486.02 365.34,488.56 363.68,490.34 C362.12,492.01 360.02,494.97 359.00,496.94 ZM 479.75 667.52 C479.75,670.57 479.61,670.58 477.71,667.68 C473.57,661.37 472.74,647.44 475.99,638.77 C478.30,632.59 486.03,624.47 493.00,620.90 C499.61,617.51 514.27,617.49 521.74,620.87 C524.62,622.17 526.75,623.60 526.47,624.04 C525.84,625.06 517.16,624.16 514.64,622.81 C513.30,622.09 512.96,622.12 513.44,622.90 C513.81,623.51 513.59,624.00 512.95,624.00 C512.31,624.00 512.04,624.65 512.34,625.45 C512.99,627.14 507.88,633.00 505.77,633.00 C503.50,633.00 503.12,632.07 504.06,628.80 L 504.93 625.76 L 501.07 626.37 C498.58,626.77 496.24,626.49 494.48,625.57 C491.51,624.03 489.94,624.33 485.75,627.23 C483.15,629.03 481.70,631.92 484.15,630.40 C484.88,629.96 485.04,630.13 484.59,630.86 C484.19,631.51 483.53,631.83 483.14,631.58 C482.10,630.94 482.34,635.22 483.43,636.94 C484.04,637.90 483.94,638.52 483.13,638.79 C477.35,640.72 472.91,651.06 476.38,654.52 C477.27,655.41 478.01,657.12 478.02,658.32 C478.02,659.52 478.45,661.16 478.96,661.97 C479.56,662.92 479.47,663.95 478.69,664.91 C477.91,665.88 477.89,666.15 478.62,665.71 C479.34,665.28 479.75,665.95 479.75,667.52 ZM 304.20 595.83 C288.95,595.60 285.74,595.80 284.96,597.03 C284.23,598.19 284.03,598.03 284.02,596.25 L 284.00 594.00 L 340.95 594.00 C394.13,594.00 397.97,593.88 398.92,592.25 C399.48,591.29 399.95,591.04 399.97,591.70 C399.99,592.37 398.80,594.10 397.34,595.57 L 394.69 598.22 L 382.59 597.57 C371.45,596.97 351.91,596.54 304.20,595.83 ZM 497.87 516.71 C499.83,521.65 499.65,523.70 497.38,522.18 C496.82,521.81 495.34,519.36 494.09,516.75 C492.84,514.14 491.46,512.00 491.01,512.00 C490.16,512.00 488.36,504.96 487.68,498.97 C487.26,495.23 484.43,488.96 482.66,487.82 C482.08,487.45 480.91,487.50 480.05,487.94 C478.59,488.70 474.71,487.95 474.98,486.96 C475.05,486.71 474.43,484.88 473.60,482.90 C472.27,479.72 472.27,479.06 473.58,477.19 C474.62,475.71 474.91,473.54 474.56,469.97 C474.14,465.69 474.32,464.92 475.64,465.18 C477.34,465.53 489.32,493.67 488.40,495.16 C488.12,495.62 488.29,496.00 488.78,496.00 C489.28,496.00 491.06,499.49 492.74,503.75 C494.42,508.01 496.73,513.84 497.87,516.71 ZM 646.00 596.77 C633.23,598.38 619.38,598.36 618.05,596.75 C616.51,594.88 610.52,586.68 609.65,585.26 C609.14,584.42 609.39,584.21 610.44,584.62 C611.29,584.94 611.75,585.59 611.46,586.06 C611.17,586.53 612.09,587.67 613.50,588.59 C614.91,589.52 615.83,590.51 615.54,590.79 C615.25,591.08 615.52,591.92 616.13,592.66 C617.04,593.75 627.05,594.01 669.37,594.07 C699.39,594.11 720.65,594.51 719.50,595.00 C718.40,595.47 713.90,595.92 709.50,595.99 C705.10,596.06 698.28,596.45 694.34,596.84 C690.41,597.24 686.02,597.25 684.60,596.87 C679.92,595.62 655.69,595.56 646.00,596.77 ZM 561.60 424.16 C558.11,423.19 557.87,423.29 555.40,426.83 C553.29,429.83 552.95,430.04 553.49,428.00 C553.86,426.62 554.96,424.38 555.94,423.00 L 557.72 420.50 L 626.53 420.24 C664.38,420.10 695.15,420.18 694.91,420.42 C693.28,422.05 661.46,423.68 662.45,422.08 C662.92,421.32 657.00,421.04 642.31,421.15 C630.19,421.24 623.38,421.59 626.00,422.00 C629.81,422.59 629.27,422.71 622.50,422.75 C617.14,422.78 615.33,422.54 617.00,422.00 C618.45,421.54 611.25,421.16 599.83,421.10 C586.36,421.03 580.05,421.35 579.80,422.10 C579.60,422.70 577.42,423.33 574.97,423.50 C572.51,423.66 569.31,424.10 567.87,424.48 C566.42,424.85 563.60,424.71 561.60,424.16 ZM 596.20 595.80 C596.86,596.46 597.12,597.00 596.79,597.00 C596.01,597.00 587.36,586.02 583.28,579.85 L 580.20 575.20 L 583.84 577.66 C585.84,579.02 588.33,581.05 589.37,582.16 C590.53,583.41 591.51,583.79 591.90,583.16 C592.25,582.59 593.77,581.66 595.27,581.09 C597.20,580.35 598.00,579.34 598.00,577.64 C598.00,574.89 594.14,569.50 593.96,572.00 C593.89,573.02 593.59,572.86 593.00,571.50 C592.24,569.74 592.13,569.84 592.07,572.31 C592.03,573.85 591.57,574.85 591.04,574.53 C590.52,574.20 590.32,573.33 590.60,572.60 C590.88,571.86 591.20,569.30 591.31,566.89 C591.61,560.08 593.71,560.83 600.51,570.18 C603.80,574.71 606.50,578.79 606.50,579.25 C606.50,579.70 607.08,580.43 607.80,580.87 C608.83,581.51 608.77,581.94 607.52,582.98 C606.18,584.10 606.05,584.03 606.65,582.48 C607.12,581.24 606.97,580.90 606.17,581.39 C605.53,581.79 605.00,581.74 605.00,581.27 C605.00,580.81 604.11,580.36 603.03,580.28 C600.10,580.06 595.00,586.98 595.00,591.19 C595.00,593.07 595.54,595.14 596.20,595.80 ZM 407.58 378.00 C406.88,378.00 405.82,379.01 405.22,380.25 C402.95,384.96 404.15,381.00 407.97,371.21 C414.61,354.16 416.58,351.27 422.15,350.36 C425.58,349.81 428.06,351.44 432.82,357.41 C434.60,359.64 440.10,373.00 440.27,375.50 C440.34,376.60 440.88,377.83 441.45,378.23 C442.17,378.74 442.14,378.97 441.38,378.98 C437.30,379.04 432.37,370.09 431.63,361.26 C431.29,357.34 429.95,354.56 427.50,352.77 C424.12,350.28 414.43,354.34 415.72,357.70 C416.18,358.90 415.97,359.12 414.92,358.52 C413.81,357.89 413.76,357.99 414.67,358.97 C415.35,359.71 415.60,361.67 415.28,363.67 C414.96,365.66 415.27,368.14 416.03,369.55 C416.75,370.90 417.04,372.30 416.67,372.67 C416.30,373.03 415.99,372.70 415.98,371.92 C415.97,370.75 415.80,370.76 415.00,372.00 C414.25,373.16 414.02,372.81 413.98,370.50 C413.93,367.73 413.73,367.90 411.39,372.75 C409.99,375.64 408.28,378.00 407.58,378.00 ZM 719.74 611.30 C720.71,611.55 695.91,611.92 664.64,612.13 L 607.78 612.50 L 605.73 609.50 C604.60,607.85 604.25,607.03 604.96,607.67 C605.67,608.32 606.98,608.61 607.87,608.33 C609.09,607.94 609.17,608.05 608.20,608.74 C607.38,609.33 610.87,609.53 617.70,609.27 C625.44,608.98 628.07,609.16 627.00,609.92 C625.94,610.66 638.21,610.97 668.75,610.98 C696.93,610.99 712.00,610.65 712.00,610.00 C712.00,609.45 713.60,609.00 715.56,609.00 C717.52,609.00 718.86,609.42 718.55,609.92 C718.23,610.43 718.77,611.05 719.74,611.30 ZM 640.00 495.29 C640.00,495.56 639.31,496.05 638.47,496.37 C635.47,497.52 628.77,487.36 628.85,481.77 C628.86,480.82 628.38,479.74 627.78,479.37 C627.08,478.93 626.98,479.16 627.50,480.00 C628.05,480.89 627.92,481.07 627.09,480.55 C626.41,480.14 626.10,479.17 626.40,478.41 C626.69,477.65 626.61,477.13 626.21,477.25 C625.24,477.57 620.89,474.44 621.48,473.85 C621.74,473.59 619.28,473.43 616.01,473.50 C611.05,473.60 610.26,473.39 611.22,472.23 C612.61,470.56 621.42,465.99 623.22,466.02 C623.92,466.03 627.72,472.28 631.65,479.92 C637.03,490.38 638.51,494.09 637.65,494.96 C636.78,495.83 636.93,495.96 638.25,495.45 C639.21,495.09 640.00,495.01 640.00,495.29 ZM 538.19 665.16 C536.93,667.72 535.20,670.09 534.34,670.42 C533.16,670.88 532.95,670.59 533.47,669.26 C533.86,668.29 534.35,666.15 534.57,664.50 C535.09,660.59 537.01,656.00 538.12,656.00 C539.70,656.00 539.11,646.26 537.43,644.57 C535.31,642.46 534.50,642.59 533.22,645.25 L 532.14 647.50 L 532.07 645.30 C532.03,644.09 532.79,642.64 533.75,642.07 C535.15,641.24 535.24,640.86 534.16,640.16 C533.43,639.67 532.76,638.88 532.66,638.39 C532.57,637.90 531.97,637.56 531.33,637.63 C530.09,637.76 530.12,634.24 531.37,632.21 C531.78,631.54 531.62,631.00 531.00,631.00 C530.39,631.00 530.14,630.59 530.45,630.09 C530.76,629.58 530.45,628.94 529.76,628.66 C529.07,628.39 528.96,628.12 529.53,628.08 C531.79,627.91 537.94,635.31 539.54,640.12 C541.87,647.14 541.24,658.93 538.19,665.16 ZM 295.81 537.35 C290.88,538.67 282.44,537.58 281.65,535.53 C281.24,534.46 282.31,534.27 286.78,534.64 C289.89,534.89 292.64,535.31 292.89,535.55 C293.14,535.80 294.40,535.31 295.70,534.46 C297.00,533.61 298.57,533.23 299.20,533.62 C299.97,534.10 300.12,533.75 299.66,532.55 C299.16,531.25 299.37,530.93 300.44,531.34 C301.37,531.70 301.72,531.42 301.39,530.57 C301.11,529.84 302.03,527.99 303.44,526.47 C304.85,524.95 306.00,524.29 306.00,525.01 C306.00,525.95 306.51,525.85 307.83,524.65 C309.43,523.20 312.88,523.00 335.89,523.00 C353.93,523.00 362.81,522.64 364.32,521.84 C366.29,520.78 366.37,520.83 365.13,522.34 C363.91,523.81 360.69,524.00 336.32,524.00 C318.56,524.00 309.10,524.35 309.49,524.99 C310.50,526.62 302.73,534.17 299.85,534.34 C298.39,534.43 297.44,534.99 297.68,535.62 C297.92,536.23 297.08,537.02 295.81,537.35 ZM 406.52 583.73 C405.98,584.96 404.95,586.19 404.22,586.47 C402.47,587.14 402.98,586.32 411.43,575.09 C415.32,569.91 419.92,563.61 421.67,561.09 C423.41,558.56 426.01,555.15 427.46,553.50 L 430.09 550.50 L 429.44 554.00 C429.09,555.92 428.11,558.17 427.26,559.00 C425.89,560.33 425.80,560.33 426.43,559.00 C426.82,558.17 425.54,559.30 423.58,561.50 C421.62,563.70 420.23,566.09 420.50,566.80 C420.76,567.52 420.53,567.83 419.99,567.49 C419.16,566.98 418.46,570.59 418.88,573.25 C418.95,573.66 418.52,574.00 417.94,574.00 C417.36,574.00 417.19,574.49 417.56,575.10 C418.05,575.90 417.68,575.90 416.18,575.10 C412.99,573.39 412.50,575.60 415.42,578.51 C420.33,583.42 421.01,587.00 417.04,587.00 C415.12,587.00 412.59,581.81 413.83,580.42 C414.20,580.01 413.88,580.04 413.11,580.48 C412.35,580.92 410.78,581.33 409.61,581.39 C408.45,581.45 407.06,582.50 406.52,583.73 ZM 664.42 507.87 C665.59,509.76 645.58,509.40 644.00,507.50 C642.90,506.17 647.19,506.00 681.63,506.03 C716.87,506.06 720.31,506.21 718.50,507.61 C716.93,508.82 714.87,509.03 709.00,508.59 C689.92,507.17 663.73,506.75 664.42,507.87 ZM 450.88 412.00 C449.94,412.00 448.98,412.55 448.76,413.22 C448.53,413.90 448.10,413.49 447.79,412.31 C447.48,411.13 447.69,409.71 448.26,409.14 C449.46,407.94 447.42,402.13 445.22,400.46 C444.45,399.87 443.60,396.69 443.28,393.18 C442.97,389.75 442.33,386.70 441.86,386.41 C440.80,385.76 440.71,380.00 441.75,380.00 C442.80,380.01 453.99,407.59 454.41,411.20 C454.66,413.31 454.45,413.85 453.68,413.08 C453.09,412.49 451.83,412.00 450.88,412.00 ZM 442.53 565.05 C442.85,565.57 442.64,566.00 442.06,566.00 C441.48,566.00 441.00,565.71 441.00,565.35 C441.00,564.51 447.65,554.49 449.33,552.80 C450.05,552.09 451.41,550.30 452.37,548.84 C454.05,546.27 454.04,546.14 451.94,544.67 C450.75,543.83 449.15,543.39 448.39,543.68 C447.62,543.97 447.00,543.75 447.00,543.17 C447.00,542.60 446.09,541.85 444.99,541.50 C443.88,541.14 443.23,540.44 443.54,539.93 C443.86,539.42 443.66,539.00 443.11,539.00 C441.95,539.00 437.00,545.20 437.00,546.66 C437.00,547.19 435.71,548.86 434.13,550.37 C431.62,552.78 431.18,552.91 430.61,551.43 C430.02,549.88 432.12,546.63 440.18,536.62 C441.11,535.46 442.23,534.92 442.68,535.40 C443.13,535.88 442.93,536.48 442.24,536.72 C441.54,536.97 440.48,538.15 439.87,539.34 L 438.75 541.50 L 440.84 539.33 C443.39,536.68 445.85,537.17 449.68,541.07 C451.23,542.65 453.09,543.96 453.81,543.97 C454.53,543.99 454.84,544.45 454.50,545.00 C454.16,545.55 454.56,546.00 455.40,546.00 C456.48,546.00 456.20,546.71 454.40,548.51 C453.02,549.89 452.13,551.40 452.42,551.88 C452.72,552.35 451.28,554.47 449.23,556.58 C447.18,558.70 445.61,560.77 445.74,561.19 C445.87,561.60 445.07,562.43 443.96,563.02 C442.85,563.61 442.21,564.53 442.53,565.05 ZM 473.19 457.23 C473.88,457.46 473.99,457.88 473.45,458.21 C472.50,458.79 469.72,456.48 470.23,455.54 C470.38,455.26 469.73,454.01 468.80,452.77 C467.86,451.52 466.99,450.05 466.87,449.50 C466.54,448.05 464.32,446.00 463.07,446.00 C462.48,446.00 462.00,445.23 462.00,444.28 C462.00,443.34 461.27,440.66 460.38,438.33 C458.80,434.19 459.10,427.00 460.85,427.00 C461.88,427.00 471.40,451.04 471.24,453.25 C471.18,454.21 471.57,455.00 472.12,455.00 C472.67,455.00 472.86,455.41 472.55,455.91 C472.24,456.42 472.53,457.01 473.19,457.23 ZM 578.56 552.08 C578.75,552.40 578.26,552.67 577.46,552.67 C576.66,552.67 576.00,552.27 576.00,551.77 C576.00,551.28 575.55,551.16 575.00,551.50 C574.42,551.86 574.01,550.93 574.02,549.31 C574.03,547.13 574.25,546.84 575.00,548.00 C575.59,548.92 575.98,549.03 575.98,548.30 C575.99,547.64 575.27,546.69 574.37,546.19 C573.37,545.63 573.14,545.03 573.78,544.64 C574.35,544.29 574.58,543.10 574.29,542.01 C574.01,540.92 573.37,540.27 572.89,540.57 C572.40,540.87 572.00,540.66 572.00,540.09 C572.00,539.13 568.62,540.90 563.04,544.79 C558.49,547.96 561.82,544.43 567.85,539.70 L 573.82 535.01 L 577.66 539.75 C579.77,542.36 582.55,546.00 583.84,547.83 C585.94,550.82 585.99,551.12 584.34,550.85 C583.33,550.69 581.94,550.90 581.26,551.33 C580.38,551.88 580.22,551.59 580.70,550.33 C581.30,548.76 581.20,548.73 579.80,550.03 C578.92,550.84 578.37,551.76 578.56,552.08 ZM 530.39 533.84 C530.61,534.20 530.08,535.16 529.20,535.97 C527.79,537.28 527.71,537.22 528.43,535.47 C529.79,532.16 530.31,528.76 530.38,522.83 C530.41,519.71 530.77,517.36 531.18,517.61 C531.58,517.86 532.72,516.81 533.71,515.28 C536.56,510.86 540.21,507.01 541.06,507.54 C542.02,508.13 532.35,532.36 530.97,532.84 C530.43,533.02 530.17,533.47 530.39,533.84 ZM 736.55 420.09 C737.39,421.73 737.68,423.67 737.24,424.81 C736.61,426.48 736.18,426.13 734.22,422.33 C732.97,419.90 732.18,417.52 732.47,417.04 C732.77,416.57 731.58,414.98 729.83,413.51 C727.57,411.61 725.90,410.98 724.07,411.33 C722.54,411.63 720.81,411.21 719.78,410.29 C718.37,409.02 717.30,408.93 713.91,409.79 C711.63,410.37 709.14,410.61 708.38,410.32 C706.96,409.77 706.40,411.50 707.75,412.25 C708.16,412.48 707.90,412.52 707.16,412.33 C706.43,412.15 704.93,413.01 703.84,414.25 C702.74,415.49 702.13,415.94 702.48,415.25 C703.18,413.87 701.96,413.58 700.41,414.75 C699.86,415.16 700.86,414.06 702.63,412.31 C704.39,410.56 707.78,408.60 710.14,407.96 C714.53,406.78 722.89,407.34 726.03,409.02 C728.71,410.45 734.97,417.04 736.55,420.09 ZM 395.66 453.75 C390.86,465.61 388.50,467.30 389.36,458.25 C390.12,450.25 390.19,450.00 391.52,450.00 C392.18,450.00 393.13,448.54 393.64,446.75 C394.16,444.96 395.01,443.49 395.54,443.48 C396.07,443.48 397.03,443.13 397.68,442.72 C400.17,441.14 399.67,443.86 395.66,453.75 ZM 730.00 500.98 C728.62,501.95 726.45,503.06 725.16,503.46 C723.12,504.10 722.95,503.96 723.82,502.33 C726.51,497.32 733.46,494.00 741.28,494.00 C744.21,494.00 747.41,494.58 748.38,495.29 C750.05,496.51 750.04,496.58 748.32,496.69 C742.39,497.08 732.14,499.48 730.00,500.98 ZM 350.56 507.53 C349.06,508.66 345.73,508.97 336.06,508.85 C329.15,508.77 320.95,508.43 317.83,508.10 C305.96,506.82 311.43,506.00 331.58,506.03 C350.19,506.06 352.29,506.23 350.56,507.53 ZM 373.55 507.09 C373.86,507.59 373.59,508.00 372.95,508.00 C372.31,508.00 372.04,507.34 372.35,506.53 C372.66,505.72 372.48,504.80 371.95,504.47 C370.98,503.87 371.22,501.01 372.52,497.76 C372.90,496.80 373.62,496.27 374.13,496.58 C374.64,496.89 374.96,496.78 374.86,496.32 C374.11,493.06 380.88,482.36 382.26,484.63 C382.90,485.68 375.12,505.36 373.87,505.84 C373.38,506.02 373.24,506.58 373.55,507.09 ZM 519.37 682.96 C513.57,685.13 500.00,685.86 500.00,684.00 C500.00,683.45 502.02,683.00 504.50,683.00 C506.98,683.00 509.00,682.57 509.00,682.04 C509.00,681.51 510.91,680.61 513.25,680.04 C515.59,679.48 518.74,678.60 520.26,678.09 C521.92,677.54 522.79,677.53 522.45,678.08 C521.58,679.48 522.79,679.18 525.71,677.27 L 528.34 675.54 L 526.58 678.23 C525.50,679.88 522.72,681.71 519.37,682.96 ZM 273.74 527.25 C275.18,530.50 274.92,530.68 272.56,528.07 C268.52,523.61 267.13,515.64 269.18,508.79 C270.41,504.67 277.31,496.02 278.47,497.15 C279.31,497.97 273.70,509.17 271.57,510.94 C269.72,512.48 269.62,521.43 271.42,523.34 C272.03,523.98 273.07,525.74 273.74,527.25 ZM 304.43 499.87 C307.64,503.29 307.71,504.92 304.50,501.78 C303.40,500.71 301.60,499.34 300.50,498.75 C298.71,497.78 298.64,497.85 299.87,499.34 C301.48,501.29 300.73,501.46 297.68,499.84 C295.63,498.74 295.59,498.79 296.98,500.59 C298.43,502.46 298.42,502.46 296.31,500.66 C293.75,498.49 287.90,496.74 283.00,496.70 L 279.50 496.66 L 282.50 495.38 C286.49,493.67 294.29,493.67 298.28,495.38 C300.05,496.13 302.82,498.15 304.43,499.87 ZM 485.98 531.91 C486.72,535.81 487.08,539.25 486.78,539.55 C486.31,540.02 484.11,534.94 476.91,516.75 C475.17,512.36 475.16,512.09 476.76,513.10 C479.48,514.81 481.99,518.65 482.22,521.42 C482.34,522.81 482.93,524.14 483.54,524.38 C484.14,524.61 485.24,528.00 485.98,531.91 ZM 731.02 587.29 C729.55,586.91 727.89,587.63 725.69,589.61 C723.29,591.77 723.45,591.47 726.32,588.38 C730.37,584.03 735.19,582.00 741.50,582.00 C747.01,582.00 752.46,583.90 753.97,586.36 C755.24,588.43 755.22,588.44 753.33,586.76 C751.85,585.45 751.09,585.31 750.22,586.18 C749.35,587.05 747.62,586.90 743.15,585.55 C737.33,583.78 737.21,583.79 735.20,585.80 C733.87,587.13 732.40,587.65 731.02,587.29 ZM 441.42 425.25 C441.54,427.31 441.54,429.00 441.44,429.00 C441.28,429.00 433.92,411.57 432.33,407.41 C431.83,406.12 433.19,406.13 436.24,407.45 C438.39,408.38 440.99,417.31 441.42,425.25 ZM 514.22 572.94 C510.55,576.61 504.41,577.21 501.65,574.17 C499.49,571.78 499.54,569.75 501.75,570.24 C502.71,570.45 503.40,571.10 503.29,571.70 C502.99,573.20 508.90,571.77 512.36,569.50 C514.33,568.21 515.41,568.01 516.19,568.79 C516.97,569.57 516.42,570.73 514.22,572.94 ZM 455.52 453.28 C455.88,456.18 456.02,459.87 455.84,461.48 C455.47,464.61 455.14,463.96 449.02,448.14 L 446.94 442.77 L 450.05 445.39 C451.76,446.82 453.54,448.00 454.00,448.00 C454.47,448.00 455.15,450.38 455.52,453.28 ZM 471.27 493.28 C471.03,496.15 470.74,498.91 470.62,499.42 C470.38,500.37 466.75,492.36 464.41,485.75 L 463.06 481.92 L 466.03 483.68 C467.67,484.64 469.26,486.24 469.57,487.23 C469.89,488.22 470.49,488.81 470.92,488.55 C471.35,488.28 471.51,490.41 471.27,493.28 ZM 497.81 682.21 C498.98,682.44 499.14,682.78 498.32,683.29 C497.67,683.70 496.89,683.63 496.59,683.15 C496.29,682.66 494.79,682.01 493.27,681.70 C491.75,681.40 488.70,679.59 486.50,677.69 L 482.50 674.22 L 485.40 674.54 C486.99,674.71 488.67,675.45 489.13,676.18 C489.82,677.26 489.97,677.25 489.98,676.13 C490.00,675.04 490.30,675.01 491.46,675.96 C492.26,676.63 493.38,676.88 493.96,676.53 C494.53,676.17 495.00,676.39 495.00,677.00 C495.00,677.63 495.55,677.79 496.25,677.37 C496.98,676.93 496.87,677.40 496.00,678.50 C494.80,680.01 494.78,680.21 495.92,679.53 C496.97,678.89 497.18,679.09 496.73,680.27 C496.33,681.31 496.71,681.99 497.81,682.21 ZM 426.02 588.18 C424.16,590.61 421.55,593.41 420.23,594.41 L 417.84 596.22 L 419.41 593.17 C420.28,591.50 420.73,589.46 420.42,588.65 C420.06,587.71 420.67,586.92 422.13,586.46 C425.00,585.55 426.77,583.81 426.29,582.37 C426.09,581.76 426.83,581.02 427.94,580.73 C430.87,579.96 430.14,582.82 426.02,588.18 ZM 524.59 550.24 C522.63,555.64 520.97,557.64 519.60,556.26 C518.40,555.06 519.06,551.42 521.08,548.11 C526.05,539.95 527.92,541.08 524.59,550.24 ZM 211.40 264.07 C210.45,264.86 208.90,266.77 207.95,268.33 C206.94,269.99 205.95,270.72 205.56,270.10 C204.80,268.87 206.21,265.90 208.43,264.05 C209.28,263.35 209.74,262.38 209.44,261.91 C209.15,261.43 209.41,260.11 210.01,258.97 C210.80,257.51 211.77,257.06 213.31,257.44 C214.51,257.74 214.94,257.72 214.25,257.41 C213.56,257.09 213.00,256.37 213.00,255.79 C213.00,255.16 213.57,255.23 214.47,255.98 C215.75,257.04 215.76,257.56 214.54,259.92 C213.77,261.42 212.35,263.29 211.40,264.07 ZM 760.64 526.00 C759.97,526.83 757.87,528.85 755.97,530.50 C753.14,532.95 752.92,533.03 754.75,530.94 C755.99,529.53 757.00,527.64 757.00,526.76 C757.00,525.87 757.74,524.40 758.65,523.49 C759.56,522.58 760.55,519.51 760.85,516.67 L 761.38 511.50 L 762.10 515.50 C762.91,520.07 762.39,523.83 760.64,526.00 ZM 811.47 275.90 C812.44,278.97 811.44,278.47 810.09,275.22 C809.46,273.69 807.38,270.68 805.48,268.54 C801.63,264.22 801.57,263.50 805.15,264.87 C808.27,266.05 810.21,268.41 810.54,271.42 C810.68,272.73 811.10,274.75 811.47,275.90 ZM 761.99 595.05 C762.72,596.77 762.76,598.41 762.10,600.05 C761.57,601.40 761.10,601.97 761.06,601.32 C761.03,600.67 760.23,599.38 759.30,598.44 C758.36,597.51 757.51,595.48 757.40,593.94 C757.30,592.41 756.86,590.59 756.44,589.90 C756.02,589.22 756.85,589.52 758.29,590.58 C759.73,591.64 761.39,593.65 761.99,595.05 ZM 571.27 561.25 C572.51,564.51 570.44,563.02 566.62,557.90 C564.40,554.93 563.18,552.42 563.69,551.91 C564.94,550.66 569.26,553.89 568.61,555.57 C568.32,556.33 568.65,557.52 569.35,558.22 C570.04,558.92 570.91,560.29 571.27,561.25 ZM 822.57 286.57 C821.79,287.36 820.66,288.00 820.07,288.00 C818.54,288.00 818.75,282.73 820.37,280.51 C821.69,278.70 821.77,278.71 822.87,280.75 C824.36,283.55 824.30,284.85 822.57,286.57 ZM 734.50 441.11 C733.21,443.10 731.18,444.98 729.98,445.29 C727.87,445.85 727.86,445.81 729.64,443.84 C730.64,442.74 732.41,439.95 733.56,437.66 C734.71,435.37 736.07,433.73 736.57,434.00 C737.87,434.71 737.22,436.94 734.50,441.11 ZM 213.00 781.43 C213.00,782.93 211.01,781.58 206.60,777.10 C203.87,774.33 202.00,771.61 202.31,770.85 C202.67,769.94 202.87,770.09 202.92,771.29 C202.97,772.43 203.64,772.98 204.75,772.79 C205.87,772.61 206.45,773.10 206.37,774.17 C206.31,775.09 206.76,775.66 207.37,775.43 C207.99,775.21 209.00,775.35 209.60,775.76 C210.69,776.49 213.00,780.35 213.00,781.43 ZM 762.45 508.75 C763.52,512.25 760.76,511.55 758.49,507.75 C757.42,505.96 756.66,504.11 756.81,503.62 C756.96,503.14 756.28,501.81 755.29,500.66 C754.22,499.41 754.91,499.71 757.00,501.41 C760.78,504.47 761.39,505.30 762.45,508.75 ZM 624.47 504.82 C625.16,508.41 623.67,507.28 620.75,501.99 C617.70,496.46 617.15,494.05 619.34,495.87 C620.08,496.48 620.98,496.69 621.34,496.32 C621.70,495.96 622.00,496.78 622.00,498.13 C622.00,499.49 622.46,501.06 623.02,501.62 C623.59,502.19 624.24,503.63 624.47,504.82 ZM 746.75 625.37 C742.73,626.45 739.00,626.08 739.00,624.61 C739.00,622.67 741.25,622.00 745.44,622.68 C749.50,623.34 750.05,624.48 746.75,625.37 ZM 398.17 409.25 C399.08,411.01 400.93,411.65 401.08,410.25 C401.60,405.45 401.47,403.39 400.60,402.80 C399.08,401.79 397.08,407.11 398.17,409.25 ZM 762.27 610.73 C761.94,611.59 759.84,614.16 757.59,616.44 C755.34,618.71 754.23,619.66 755.11,618.54 C756.00,617.42 757.53,614.63 758.52,612.34 C759.61,609.80 760.80,608.37 761.59,608.67 C762.30,608.94 762.60,609.87 762.27,610.73 ZM 421.85 387.09 C421.21,388.97 420.13,391.31 419.46,392.31 C418.40,393.87 418.25,393.57 418.37,390.14 C418.44,387.96 418.69,386.36 418.92,386.59 C419.15,386.82 420.16,386.26 421.17,385.34 C422.93,383.75 422.96,383.82 421.85,387.09 ZM 372.60 482.53 C373.25,485.13 371.99,487.65 370.68,486.35 C369.66,485.32 369.86,481.20 370.97,480.52 C371.50,480.19 372.24,481.09 372.60,482.53 ZM 389.20 450.08 C389.50,450.87 389.13,452.09 388.37,452.79 C386.87,454.20 386.73,453.54 387.90,450.57 C388.48,449.08 388.78,448.97 389.20,450.08 ZM 460.00 426.50 C459.32,427.33 458.59,428.00 458.38,428.00 C458.17,428.00 458.00,427.33 458.00,426.50 C458.00,425.67 458.73,425.00 459.62,425.00 C460.95,425.00 461.02,425.27 460.00,426.50 ZM 441.77 548.19 C441.27,549.68 439.00,550.50 439.00,549.19 C439.00,548.65 439.71,547.94 440.58,547.61 C441.56,547.23 442.01,547.46 441.77,548.19 Z" fill="rgb(24,41,61)"/>
<path d="M 226.61 767.69 C225.73,767.14 224.68,766.36 223.59,765.48 C224.86,766.34 226.21,767.03 227.64,767.54 C230.88,768.69 276.52,768.92 512.67,768.96 L 793.84 769.00 L 798.83 766.79 C803.71,764.62 808.49,759.02 810.63,753.10 C810.59,753.29 810.55,753.45 810.51,753.59 C809.69,756.29 809.02,758.68 809.01,758.89 C809.00,759.10 810.46,757.74 812.25,755.86 C814.06,753.96 816.25,752.60 817.19,752.79 C818.20,752.99 818.66,753.71 818.33,754.58 C817.59,756.50 819.77,759.02 821.57,758.33 C823.41,757.63 823.41,754.59 821.56,753.05 C820.77,752.40 819.82,750.44 819.43,748.70 C819.05,746.95 818.16,744.62 817.46,743.51 C815.23,739.97 814.96,734.40 814.75,687.00 C814.63,658.62 814.18,640.24 813.59,639.83 C812.99,639.40 813.11,637.71 813.91,635.29 C815.17,631.45 814.96,621.06 813.48,614.26 C813.09,612.48 813.09,610.23 813.48,609.26 C814.10,607.69 814.22,592.39 814.12,524.00 C814.11,513.28 814.31,477.50 814.57,444.50 C815.31,349.96 815.14,287.88 814.13,286.63 C813.63,286.01 812.99,284.60 812.72,283.50 C812.72,283.49 812.72,283.49 812.72,283.49 C812.45,283.49 812.18,387.29 812.12,515.09 C812.05,654.30 811.93,712.61 811.45,736.96 C812.35,658.11 812.12,289.59 810.95,281.51 C810.27,276.78 809.05,273.24 806.96,270.34 C808.36,272.14 809.62,274.08 810.09,275.22 C811.44,278.47 812.44,278.97 811.47,275.90 C811.10,274.75 810.68,272.73 810.54,271.42 C810.21,268.41 808.27,266.05 805.15,264.87 C801.61,263.52 801.63,264.20 805.32,268.37 C804.05,267.04 802.52,265.83 800.71,264.69 L 796.41 261.97 L 514.05 261.99 C301.57,262.01 230.72,262.30 227.78,263.18 C222.60,264.74 216.89,270.61 214.73,276.63 C214.27,277.92 213.93,279.90 213.68,286.99 C213.79,281.61 213.90,278.76 214.03,278.43 C215.23,275.26 214.64,274.22 212.61,275.91 C210.78,277.42 206.81,278.16 205.49,277.22 C204.94,276.82 203.64,274.89 202.61,272.93 C201.09,270.03 200.96,268.95 201.90,267.18 C202.55,265.98 203.50,265.00 204.04,265.00 C204.57,265.00 205.00,263.98 205.00,262.72 C205.00,259.54 207.86,255.73 209.72,256.44 C210.78,256.85 211.05,256.56 210.62,255.46 C210.28,254.56 210.44,254.16 211.01,254.51 C211.56,254.84 212.00,254.61 212.00,254.00 C212.00,253.39 212.53,253.21 213.17,253.61 C213.98,254.11 214.12,253.76 213.62,252.44 C213.22,251.41 213.21,250.87 213.59,251.25 C213.97,251.63 215.63,250.81 217.27,249.42 C220.03,247.10 220.82,246.95 227.38,247.46 C232.19,247.84 233.85,247.72 232.50,247.08 C231.05,246.40 232.60,246.12 238.19,246.07 C242.42,246.03 246.09,245.66 246.35,245.25 C246.60,244.84 331.11,244.59 434.15,244.70 C537.19,244.80 635.90,244.82 653.50,244.73 C712.95,244.42 778.42,244.93 791.50,245.80 C802.71,246.55 805.10,247.02 808.85,249.22 C811.24,250.62 812.81,251.93 812.35,252.13 C811.88,252.34 814.26,255.31 817.64,258.74 C822.61,263.79 823.99,264.72 824.91,263.61 C825.56,262.83 825.41,261.88 824.10,259.93 C825.33,261.74 826.40,263.65 827.31,265.65 C825.78,263.19 824.80,263.59 825.55,267.25 C825.91,269.04 826.44,277.42 826.72,285.88 C826.99,294.34 827.58,300.68 828.02,299.97 C829.04,298.32 828.62,327.92 827.59,330.20 C827.17,331.14 827.16,341.71 827.56,353.70 C828.83,391.01 829.10,447.66 828.01,446.00 C827.17,444.72 827.03,444.75 827.02,446.25 C827.01,447.21 827.45,448.00 828.00,448.00 C828.66,448.00 828.99,498.91 828.98,598.75 C828.98,687.57 828.60,748.92 828.08,748.09 C827.46,747.12 826.96,748.54 826.47,752.59 C826.07,755.84 825.38,759.21 824.93,760.09 C823.77,762.32 824.89,765.98 826.55,765.34 C827.29,765.06 828.60,762.71 829.46,760.13 C829.96,758.60 830.30,754.28 830.52,739.07 L 830.50 758.54 L 827.07 765.51 C822.80,774.19 816.10,780.84 807.27,785.19 L 800.54 788.50 L 756.52 788.53 C782.94,788.40 798.51,788.25 799.21,788.09 C801.24,787.62 803.63,786.51 804.51,785.63 C805.97,784.17 805.58,784.07 799.80,784.49 C796.34,784.74 792.15,785.26 790.50,785.65 C787.06,786.45 339.79,786.76 280.00,786.00 C245.38,785.56 240.21,785.30 238.16,783.84 C235.91,782.25 235.90,782.17 237.81,781.56 C239.59,781.00 241.38,777.24 240.82,775.25 C240.52,774.15 245.53,773.27 253.50,773.02 C258.65,772.86 259.84,772.59 258.00,772.00 C257.99,772.00 257.99,771.99 257.99,771.99 C257.99,771.56 373.34,771.19 515.50,771.17 C657.83,771.15 773.51,771.49 773.51,771.92 C773.51,771.92 773.51,771.92 773.50,771.92 C772.17,772.44 774.14,772.87 779.42,773.21 C787.84,773.75 791.32,773.33 790.43,771.89 C790.13,771.40 790.70,770.89 791.69,770.75 C791.69,770.75 791.70,770.75 791.70,770.75 C791.70,770.62 666.22,770.28 512.00,770.00 C357.17,769.73 230.07,769.84 229.55,770.25 C229.03,770.66 230.15,771.01 232.05,771.02 C234.32,771.03 235.04,771.32 234.17,771.88 C233.12,772.54 233.22,772.87 234.64,773.41 C236.03,773.95 236.14,774.29 235.14,774.92 C234.42,775.36 233.90,775.90 233.98,776.11 C234.06,776.33 233.82,777.30 233.45,778.28 C233.00,779.45 232.13,779.86 230.93,779.48 C229.92,779.16 227.84,779.53 226.30,780.31 C224.76,781.09 221.75,782.05 219.61,782.44 C216.16,783.06 215.88,783.31 217.21,784.64 C217.42,784.84 217.60,785.04 217.78,785.23 C207.57,780.42 199.31,771.41 195.63,760.70 L 193.50 754.50 L 193.22 519.50 C193.06,384.50 193.21,308.46 193.69,285.21 C193.21,308.46 193.07,384.45 193.24,519.50 C193.52,749.37 193.35,757.74 197.05,763.74 C197.36,764.25 197.70,764.74 198.08,765.35 C199.93,768.37 200.00,768.40 199.84,766.00 C199.76,764.62 200.19,761.74 200.80,759.59 C201.42,757.45 201.69,755.31 201.40,754.84 C201.12,754.38 201.55,754.00 202.36,754.00 C203.17,754.00 203.98,753.58 204.17,753.07 C204.35,752.56 205.74,751.84 207.26,751.46 C209.75,750.85 210.16,751.15 211.61,754.64 C212.49,756.76 213.84,758.86 214.61,759.30 C215.37,759.74 216.00,761.32 216.00,762.82 C216.00,766.21 220.05,768.96 225.00,768.91 C228.10,768.89 228.29,768.75 226.61,767.69 ZM 509.58 540.67 C510.63,541.07 510.84,540.74 510.34,539.45 C509.83,538.13 510.00,537.88 511.00,538.50 C511.97,539.10 512.17,538.89 511.73,537.74 C511.39,536.86 511.76,535.61 512.55,534.96 C513.33,534.31 513.80,533.48 513.58,533.13 C513.36,532.78 514.04,530.72 515.09,528.57 C516.14,526.41 517.00,523.57 517.00,522.26 C517.00,520.93 517.44,520.15 518.00,520.50 C518.55,520.84 519.00,520.40 519.00,519.53 C519.00,518.65 519.67,517.68 520.50,517.36 C521.33,517.05 522.00,516.35 522.00,515.83 C522.00,515.30 523.17,513.34 524.59,511.47 C526.62,508.80 527.22,506.81 527.34,502.28 C527.44,498.83 528.10,495.79 528.99,494.73 C529.81,493.76 530.53,492.41 530.59,491.73 C530.88,488.37 531.08,487.93 532.00,488.50 C532.55,488.84 533.00,488.69 533.00,488.17 C533.00,487.64 533.69,486.95 534.53,486.63 C535.55,486.24 536.38,486.87 537.01,488.52 C537.53,489.88 538.63,491.00 539.46,491.00 C540.93,491.00 542.12,494.01 541.83,497.00 C541.75,497.83 541.76,499.54 541.84,500.82 C541.98,502.86 542.18,502.96 543.47,501.68 C544.27,500.87 546.12,497.58 547.56,494.36 C547.69,494.07 547.81,493.79 547.94,493.52 C546.93,495.96 546.08,498.05 545.49,499.50 C543.70,503.90 537.88,518.08 532.55,531.00 C527.23,543.92 521.25,558.46 519.27,563.31 C518.39,565.45 517.42,567.51 516.48,569.26 C516.43,569.09 516.33,568.93 516.19,568.79 C515.41,568.01 514.33,568.21 512.36,569.50 C508.90,571.77 502.99,573.20 503.29,571.70 C503.40,571.10 502.71,570.45 501.75,570.24 C499.75,569.80 499.52,571.42 501.10,573.50 C499.33,571.74 497.82,569.03 496.50,565.29 C495.57,562.66 494.22,559.37 493.49,557.98 C492.76,556.60 488.78,546.92 484.65,536.48 C480.52,526.04 475.48,513.45 473.45,508.50 C471.42,503.55 468.86,497.25 467.77,494.50 C466.67,491.75 464.97,487.70 463.98,485.50 C462.99,483.30 459.43,474.52 456.07,466.00 C455.07,463.48 454.00,460.77 452.92,458.10 C455.33,464.03 455.58,463.73 455.84,461.48 C456.02,459.87 455.88,456.18 455.52,453.28 C455.15,450.38 454.47,448.00 454.00,448.00 C453.54,448.00 451.76,446.82 450.05,445.39 L 446.94 442.77 L 449.02 448.14 C450.43,451.78 451.53,454.62 452.40,456.80 C450.03,450.92 447.76,445.38 446.52,442.50 C444.62,438.10 440.84,428.88 438.11,422.00 C435.37,415.12 431.50,405.67 429.49,401.00 C427.49,396.33 425.83,391.49 425.80,390.25 C425.77,389.01 425.33,388.00 424.82,388.00 C424.30,388.00 424.16,387.55 424.50,387.00 C424.84,386.45 424.43,386.00 423.60,386.00 C422.65,386.00 421.54,387.80 420.65,390.82 C419.94,393.20 417.65,399.25 412.86,411.30 C414.50,407.07 415.72,403.36 415.42,402.87 C414.76,401.80 413.41,403.16 409.61,408.75 C408.03,411.09 406.68,413.00 406.61,413.00 C406.55,413.00 406.65,410.57 406.84,407.60 C407.02,404.63 406.65,401.21 406.00,400.01 C405.36,398.80 404.58,394.43 404.26,390.28 C403.99,386.71 403.85,384.53 403.30,384.42 C402.83,384.33 402.06,385.72 400.66,389.02 C402.08,385.45 403.00,383.05 403.00,382.87 C403.00,382.53 403.77,380.50 404.70,378.37 C405.64,376.24 408.45,369.55 410.95,363.50 C415.23,353.15 415.59,352.49 419.26,351.20 C415.64,352.92 413.32,357.47 407.97,371.21 C404.15,381.00 402.95,384.96 405.22,380.25 C405.82,379.01 406.88,378.00 407.58,378.00 C408.28,378.00 409.99,375.64 411.39,372.75 C413.73,367.90 413.93,367.73 413.98,370.50 C414.02,372.81 414.25,373.16 415.00,372.00 C415.80,370.76 415.97,370.75 415.98,371.92 C415.99,372.70 416.30,373.03 416.67,372.67 C417.04,372.30 416.75,370.90 416.03,369.55 C415.27,368.14 414.96,365.66 415.28,363.67 C415.60,361.67 415.35,359.71 414.67,358.97 C413.76,357.99 413.81,357.89 414.92,358.52 C415.97,359.12 416.18,358.90 415.72,357.70 C414.43,354.34 424.12,350.28 427.50,352.77 C429.95,354.56 431.29,357.34 431.63,361.26 C432.37,370.09 437.30,379.04 441.38,378.98 C442.14,378.97 442.17,378.74 441.45,378.23 C440.88,377.83 440.34,376.60 440.27,375.50 C440.21,374.71 439.63,372.84 438.80,370.57 C440.86,375.65 443.44,382.12 446.73,390.41 C444.32,384.67 442.18,380.01 441.75,380.00 C440.71,380.00 440.80,385.76 441.86,386.41 C442.33,386.70 442.97,389.75 443.28,393.18 C443.60,396.69 444.45,399.87 445.22,400.46 C447.42,402.13 449.46,407.94 448.26,409.14 C447.69,409.71 447.48,411.13 447.79,412.31 C448.10,413.49 448.53,413.90 448.76,413.22 C448.98,412.55 449.94,412.00 450.88,412.00 C451.83,412.00 453.09,412.49 453.68,413.08 C454.45,413.85 454.66,413.31 454.41,411.20 C454.29,410.14 453.25,407.04 451.80,403.18 L 451.98 403.61 C455.45,412.35 458.95,421.03 459.77,422.91 C461.37,426.61 466.92,440.21 481.74,476.82 C479.03,470.68 476.37,465.33 475.64,465.18 C474.32,464.92 474.14,465.69 474.56,469.97 C474.91,473.54 474.62,475.71 473.58,477.19 C472.27,479.06 472.27,479.72 473.60,482.90 C474.43,484.88 475.05,486.71 474.98,486.96 C474.71,487.95 478.59,488.70 480.05,487.94 C480.91,487.50 482.08,487.45 482.66,487.82 C484.43,488.96 487.26,495.23 487.68,498.97 C488.36,504.96 490.16,512.00 491.01,512.00 C491.46,512.00 492.84,514.14 494.09,516.75 C495.34,519.36 496.82,521.81 497.38,522.18 C499.65,523.70 499.83,521.65 497.87,516.71 C497.18,514.98 496.06,512.17 494.92,509.28 C498.45,517.89 500.92,523.82 501.26,524.46 C501.83,525.53 502.39,527.33 502.52,528.46 C502.64,529.58 502.80,530.99 502.87,531.59 C503.04,533.02 507.79,538.55 508.34,537.96 C508.45,537.84 509.14,536.26 510.18,533.78 C507.60,540.25 506.96,542.14 507.73,540.81 C507.95,540.42 508.78,540.36 509.58,540.67 ZM 199.34 748.17 C197.75,745.63 195.63,721.29 196.47,715.37 C196.85,712.69 197.16,703.30 197.16,694.50 L 197.12 629.50 C197.11,602.55 197.14,576.00 197.20,570.50 C197.26,565.00 197.22,535.75 197.11,505.50 C197.00,475.25 197.05,413.83 197.22,369.00 C197.50,296.03 197.70,287.26 199.14,285.20 C200.62,283.10 200.81,283.06 201.47,284.70 C202.08,286.25 204.87,302.61 205.01,305.50 C205.04,306.05 205.72,305.63 206.53,304.56 C207.88,302.77 208.00,303.05 208.00,308.00 C208.00,312.96 207.88,313.23 206.52,311.44 C205.06,309.54 205.02,309.55 204.40,311.75 C204.05,312.99 203.37,314.00 202.88,314.00 C202.40,314.00 202.00,314.90 202.00,316.00 C202.00,317.10 202.45,318.00 203.00,318.00 C203.55,318.00 204.00,318.67 204.00,319.50 C204.00,321.31 206.63,321.51 207.34,319.75 C207.62,319.06 207.84,320.98 207.84,324.00 C207.84,327.02 207.62,328.94 207.34,328.25 C206.63,326.49 204.00,326.69 204.00,328.50 C204.00,329.33 203.55,330.00 203.00,330.00 C201.69,330.00 201.69,343.69 203.00,344.50 C203.55,344.84 204.00,346.84 204.00,348.94 C204.00,352.99 206.87,357.04 207.14,353.37 C207.49,348.70 208.81,363.60 208.90,373.25 C208.96,379.68 209.40,384.00 210.00,384.00 C210.60,384.00 210.93,387.30 210.83,392.25 L 210.65 400.50 L 210.08 394.00 L 209.50 387.50 L 208.69 397.00 C208.25,402.23 207.83,407.02 207.77,407.65 C207.72,408.29 207.11,408.59 206.42,408.33 C204.84,407.73 203.66,411.34 204.53,414.10 C205.02,415.63 205.50,415.90 206.30,415.10 C208.54,412.86 209.00,414.23 209.20,423.75 L 209.41 433.50 L 210.00 421.00 C210.33,414.12 210.68,434.15 210.78,465.50 C210.90,502.60 210.63,521.98 210.00,521.00 C209.31,519.94 209.06,521.11 209.11,525.00 C209.18,529.25 209.38,529.93 210.00,528.00 C210.59,526.15 210.81,527.05 210.83,531.50 C210.85,535.71 210.60,536.90 210.00,535.50 C209.50,534.33 209.20,546.02 209.27,563.50 C209.37,585.31 209.57,589.95 210.00,580.50 C210.49,569.84 210.62,572.00 210.73,592.50 C210.80,607.20 210.51,616.68 210.00,615.50 C209.45,614.21 209.17,616.88 209.22,623.00 C209.28,630.44 209.45,631.53 210.00,628.00 C210.38,625.53 210.67,639.92 210.64,660.00 C210.59,686.40 210.41,691.80 210.00,679.50 L 209.43 662.50 L 209.21 682.75 C209.08,695.73 209.36,703.00 210.00,703.00 C210.62,703.00 210.95,707.99 210.86,716.25 C210.77,724.20 210.46,727.90 210.07,725.50 L 209.42 721.50 L 208.67 725.50 C208.26,727.70 207.77,730.89 207.57,732.58 C207.38,734.27 206.05,736.93 204.61,738.47 C203.17,740.02 201.97,742.46 201.93,743.90 C201.89,745.33 201.55,747.29 201.17,748.25 C200.52,749.89 200.41,749.89 199.34,748.17 ZM 646.00 596.77 C655.69,595.56 679.92,595.62 684.60,596.87 C686.02,597.25 690.41,597.24 694.34,596.84 C698.28,596.45 705.10,596.06 709.50,595.99 C713.90,595.92 718.40,595.47 719.50,595.00 C720.65,594.51 699.39,594.11 669.37,594.07 C660.40,594.06 652.88,594.04 646.59,594.00 L 720.58 594.00 L 724.26 589.59 C726.60,586.80 729.72,584.74 733.23,583.49 C730.66,584.54 728.39,586.16 726.32,588.38 C723.45,591.47 723.29,591.77 725.69,589.61 C727.89,587.63 729.55,586.91 731.02,587.29 C732.40,587.65 733.87,587.13 735.20,585.80 C737.21,583.79 737.33,583.78 743.15,585.55 C747.62,586.90 749.35,587.05 750.22,586.18 C751.09,585.31 751.85,585.45 753.33,586.76 C755.22,588.44 755.24,588.43 753.97,586.36 C753.16,585.05 751.23,583.89 748.76,583.10 C750.05,583.48 751.31,583.97 752.53,584.56 C755.56,586.04 758.57,589.27 760.65,592.93 C759.94,592.03 759.08,591.16 758.29,590.58 C756.85,589.52 756.02,589.22 756.44,589.90 C756.86,590.59 757.30,592.41 757.40,593.94 C757.51,595.48 758.36,597.51 759.30,598.44 C760.23,599.38 761.03,600.67 761.06,601.32 C761.10,601.97 761.57,601.40 762.10,600.05 C762.50,599.06 762.64,598.08 762.54,597.08 C762.91,598.17 763.17,599.25 763.32,600.31 C763.75,603.43 763.38,606.70 762.39,609.82 C762.33,609.29 762.04,608.85 761.59,608.67 C760.80,608.37 759.61,609.80 758.52,612.34 C757.53,614.63 756.00,617.42 755.11,618.54 C754.23,619.66 755.34,618.71 757.59,616.44 C759.30,614.70 760.93,612.80 761.76,611.61 C759.24,617.92 754.26,623.28 748.50,624.88 C748.22,624.96 747.92,625.03 747.60,625.11 C749.91,624.27 749.10,623.28 745.44,622.68 C741.25,622.00 739.00,622.67 739.00,624.61 C739.00,625.33 739.91,625.79 741.31,625.94 C741.20,625.94 741.10,625.94 741.00,625.94 C735.97,625.86 728.02,621.93 724.28,617.67 L 721.06 614.00 L 666.28 613.99 C624.13,613.97 610.92,613.68 609.00,612.71 C608.88,612.64 608.75,612.57 608.62,612.49 L 664.64 612.13 C695.91,611.92 720.71,611.55 719.74,611.30 C718.77,611.05 718.23,610.43 718.55,609.92 C718.86,609.42 717.52,609.00 715.56,609.00 C713.60,609.00 712.00,609.45 712.00,610.00 C712.00,610.65 696.93,610.99 668.75,610.98 C638.21,610.97 625.94,610.66 627.00,609.92 C628.07,609.16 625.44,608.98 617.70,609.27 C610.87,609.53 607.38,609.33 608.20,608.74 C609.17,608.05 609.09,607.94 607.87,608.33 C606.98,608.61 605.67,608.32 604.96,607.67 C604.25,607.03 604.60,607.85 605.73,609.50 L 606.59 610.76 C603.55,607.60 597.58,599.69 581.50,577.92 C574.90,568.98 566.88,558.33 563.67,554.25 C560.46,550.17 557.99,546.71 558.17,546.56 C558.35,546.41 561.96,543.75 566.20,540.65 L 572.95 535.69 L 567.85 539.70 C561.82,544.43 558.49,547.96 563.04,544.79 C568.62,540.90 572.00,539.13 572.00,540.09 C572.00,540.66 572.40,540.87 572.89,540.57 C573.37,540.27 574.01,540.92 574.29,542.01 C574.58,543.10 574.35,544.29 573.78,544.64 C573.14,545.03 573.37,545.63 574.37,546.19 C575.27,546.69 575.99,547.64 575.98,548.30 C575.98,549.03 575.59,548.92 575.00,548.00 C574.25,546.84 574.03,547.13 574.02,549.31 C574.01,550.93 574.42,551.86 575.00,551.50 C575.55,551.16 576.00,551.28 576.00,551.77 C576.00,552.27 576.66,552.67 577.46,552.67 C578.26,552.67 578.75,552.40 578.56,552.08 C578.37,551.76 578.92,550.84 579.80,550.03 C581.20,548.73 581.30,548.76 580.70,550.33 C580.22,551.59 580.38,551.88 581.26,551.33 C581.94,550.90 583.33,550.69 584.34,550.85 C585.99,551.12 585.94,550.82 583.84,547.83 C583.38,547.18 582.73,546.29 581.99,545.31 C583.40,547.09 584.69,548.70 585.45,549.64 C586.85,551.36 588.00,553.47 588.00,554.33 C588.00,555.19 588.83,556.47 589.83,557.19 C590.46,557.64 592.95,560.60 596.22,564.74 C592.77,560.93 591.53,561.80 591.31,566.89 C591.20,569.30 590.88,571.86 590.60,572.60 C590.32,573.33 590.52,574.20 591.04,574.53 C591.57,574.85 592.03,573.85 592.07,572.31 C592.13,569.84 592.24,569.74 593.00,571.50 C593.59,572.86 593.89,573.02 593.96,572.00 C594.14,569.50 598.00,574.89 598.00,577.64 C598.00,579.34 597.20,580.35 595.27,581.09 C593.77,581.66 592.25,582.59 591.90,583.16 C591.51,583.79 590.53,583.41 589.37,582.16 C588.33,581.05 585.84,579.02 583.84,577.66 L 580.20 575.20 L 583.28 579.85 C587.36,586.02 596.01,597.00 596.79,597.00 C597.12,597.00 596.86,596.46 596.20,595.80 C595.54,595.14 595.00,593.07 595.00,591.19 C595.00,586.98 600.10,580.06 603.03,580.28 C604.11,580.36 605.00,580.81 605.00,581.27 C605.00,581.74 605.53,581.79 606.17,581.39 C606.97,580.90 607.12,581.24 606.65,582.48 C606.05,584.03 606.18,584.10 607.52,582.98 C608.77,581.94 608.83,581.51 607.80,580.87 C607.08,580.43 606.50,579.70 606.50,579.25 C606.50,578.84 604.30,575.46 601.44,571.47 C601.95,572.14 602.46,572.82 602.98,573.50 C609.20,581.75 615.43,589.74 616.83,591.25 L 618.74 593.32 C617.11,593.14 616.35,592.92 616.13,592.66 C615.52,591.92 615.25,591.08 615.54,590.79 C615.83,590.51 614.91,589.52 613.50,588.59 C612.09,587.67 611.17,586.53 611.46,586.06 C611.75,585.59 611.29,584.94 610.44,584.62 C609.39,584.21 609.14,584.42 609.65,585.26 C610.52,586.68 616.51,594.88 618.05,596.75 C619.38,598.36 633.23,598.38 646.00,596.77 ZM 359.00 496.94 C360.02,494.97 362.12,492.01 363.68,490.34 C365.34,488.56 366.59,486.02 366.71,484.17 C366.82,482.44 367.43,480.06 368.07,478.88 C369.00,477.14 369.40,476.99 370.17,478.11 C370.85,479.09 370.93,478.80 370.47,477.15 C369.10,472.31 369.25,469.38 371.10,465.30 C372.15,463.00 373.00,460.84 373.00,460.50 C373.00,460.17 374.35,458.45 376.00,456.70 C377.64,454.94 378.99,453.09 379.00,452.60 C379.00,452.10 379.82,452.43 380.82,453.34 C382.32,454.70 382.94,454.76 384.37,453.72 C386.43,452.22 385.61,449.04 383.14,448.92 C382.10,448.87 381.96,448.66 382.76,448.34 C383.45,448.06 383.76,447.42 383.45,446.91 C382.95,446.11 383.57,445.86 385.61,446.06 C386.55,446.15 389.00,441.01 389.00,438.97 C389.00,437.98 388.56,437.02 388.03,436.83 C385.83,436.08 387.50,422.50 390.15,419.55 C390.62,419.03 391.00,417.90 391.00,417.05 C391.00,416.20 392.35,414.60 394.00,413.50 C395.65,412.40 397.00,411.11 397.00,410.63 C397.00,410.15 397.67,410.32 398.50,411.00 C399.33,411.68 400.00,413.03 400.00,413.99 C400.00,415.17 400.73,415.70 402.25,415.62 C404.28,415.51 404.53,416.02 404.80,420.77 C405.07,425.47 405.27,425.87 406.62,424.53 C407.60,423.54 409.96,418.46 411.99,413.46 C407.51,424.69 401.05,440.68 391.97,463.00 C386.94,475.38 379.68,493.38 375.84,503.00 C371.92,512.83 367.78,521.60 366.41,523.00 L 363.96 525.50 L 309.91 526.09 L 307.87 528.35 C309.11,526.88 309.85,525.57 309.49,524.99 C309.10,524.35 318.56,524.00 336.32,524.00 C360.69,524.00 363.91,523.81 365.13,522.34 C366.37,520.83 366.29,520.78 364.32,521.84 C362.81,522.64 353.93,523.00 335.89,523.00 C312.88,523.00 309.43,523.20 307.83,524.65 C306.51,525.85 306.00,525.95 306.00,525.01 C306.00,524.29 304.85,524.95 303.44,526.47 C302.03,527.99 301.11,529.84 301.39,530.57 C301.72,531.42 301.37,531.70 300.44,531.34 C299.37,530.93 299.16,531.25 299.66,532.55 C300.12,533.75 299.97,534.10 299.20,533.62 C298.57,533.23 297.00,533.61 295.70,534.46 C294.40,535.31 293.14,535.80 292.89,535.55 C292.64,535.31 289.89,534.89 286.78,534.64 C282.31,534.27 281.24,534.46 281.65,535.53 C281.75,535.79 281.98,536.04 282.31,536.27 C280.07,535.29 277.88,533.89 275.80,532.06 C274.11,530.57 272.59,528.64 271.35,526.51 C271.72,527.07 272.13,527.59 272.56,528.07 C274.92,530.68 275.18,530.50 273.74,527.25 C273.07,525.74 272.03,523.98 271.42,523.34 C269.62,521.43 269.72,512.48 271.57,510.94 C273.70,509.17 279.31,497.97 278.47,497.15 C278.43,497.11 278.38,497.08 278.33,497.07 C279.68,496.17 281.08,495.50 282.50,495.11 C284.13,494.66 285.80,494.37 287.47,494.24 C285.58,494.43 283.83,494.81 282.50,495.38 L 279.50 496.66 L 283.00 496.70 C287.90,496.74 293.75,498.49 296.31,500.66 C298.42,502.46 298.43,502.46 296.98,500.59 C295.59,498.79 295.63,498.74 297.68,499.84 C300.73,501.46 301.48,501.29 299.87,499.34 C298.64,497.85 298.71,497.78 300.50,498.75 C301.60,499.34 303.40,500.71 304.50,501.78 C307.71,504.92 307.64,503.29 304.43,499.87 C303.08,498.44 300.94,496.80 299.23,495.85 C302.95,497.27 306.10,499.52 308.09,502.45 L 310.50 505.99 L 331.64 505.99 L 352.78 506.00 L 356.84 496.75 C359.07,491.66 362.53,483.23 364.54,478.00 C366.54,472.77 368.79,467.15 369.53,465.50 C369.85,464.80 370.83,462.44 372.21,459.08 C365.35,476.06 358.49,493.13 356.39,498.50 C353.96,504.72 355.43,503.84 359.00,496.94 ZM 442.53 565.05 C442.21,564.53 442.85,563.61 443.96,563.02 C445.07,562.43 445.87,561.60 445.74,561.19 C445.61,560.77 447.18,558.70 449.23,556.58 C451.28,554.47 452.72,552.35 452.42,551.88 C452.13,551.40 453.02,549.89 454.40,548.51 C456.20,546.71 456.48,546.00 455.40,546.00 C454.56,546.00 454.16,545.55 454.50,545.00 C454.84,544.45 454.53,543.99 453.81,543.97 C453.09,543.96 451.23,542.65 449.68,541.07 C445.85,537.17 443.39,536.68 440.84,539.33 L 438.75 541.50 L 439.87 539.34 C440.48,538.15 441.54,536.97 442.24,536.72 C442.88,536.50 443.10,535.97 442.77,535.51 C443.37,535.72 443.99,536.19 444.80,536.84 C446.28,538.02 449.64,540.45 452.25,542.23 C454.86,544.01 457.00,545.96 457.00,546.55 C457.00,547.15 455.51,549.41 453.69,551.57 C451.86,553.73 448.22,558.54 445.60,562.25 C442.97,565.96 440.41,569.00 439.91,569.00 C439.41,569.00 439.00,569.57 439.00,570.27 C439.00,570.97 435.51,576.08 431.25,581.61 C426.99,587.15 423.05,592.38 422.50,593.25 C419.24,598.39 409.52,610.25 408.14,610.77 C407.24,611.11 405.91,611.98 405.18,612.69 C404.12,613.74 391.93,614.00 344.10,614.00 C311.23,614.00 284.03,613.70 283.67,613.33 C283.30,612.97 283.00,608.47 283.00,603.33 L 283.00 594.00 L 338.25 593.90 C368.64,593.85 394.50,593.51 395.72,593.15 C397.69,592.57 412.73,573.38 433.39,545.08 C437.53,539.40 439.55,536.68 441.03,535.77 C440.75,535.99 440.46,536.28 440.18,536.62 C432.12,546.63 430.02,549.88 430.61,551.43 C431.18,552.91 431.62,552.78 434.13,550.37 C435.71,548.86 437.00,547.19 437.00,546.66 C437.00,545.20 441.95,539.00 443.11,539.00 C443.66,539.00 443.86,539.42 443.54,539.93 C443.23,540.44 443.88,541.14 444.99,541.50 C446.09,541.85 447.00,542.60 447.00,543.17 C447.00,543.75 447.62,543.97 448.39,543.68 C449.15,543.39 450.75,543.83 451.94,544.67 C454.04,546.14 454.05,546.27 452.37,548.84 C451.41,550.30 450.05,552.09 449.33,552.80 C447.65,554.49 441.00,564.51 441.00,565.35 C441.00,565.71 441.48,566.00 442.06,566.00 C442.64,566.00 442.85,565.57 442.53,565.05 ZM 730.00 500.98 C732.14,499.48 742.39,497.08 748.32,496.69 C750.04,496.58 750.05,496.51 748.38,495.29 C748.07,495.06 747.53,494.85 746.85,494.66 C752.55,495.66 756.07,498.03 759.49,502.88 C760.30,504.04 760.90,504.96 761.33,505.86 C760.56,504.43 759.44,503.39 757.00,501.41 C754.91,499.71 754.22,499.41 755.29,500.66 C756.28,501.81 756.96,503.14 756.81,503.62 C756.66,504.11 757.42,505.96 758.49,507.75 C760.02,510.32 761.78,511.47 762.43,510.87 C762.48,511.95 762.50,513.24 762.50,514.84 C762.50,515.96 762.47,517.01 762.42,518.01 C762.36,517.20 762.25,516.37 762.10,515.50 L 761.38 511.50 L 760.85 516.67 C760.55,519.51 759.56,522.58 758.65,523.49 C757.74,524.40 757.00,525.87 757.00,526.76 C757.00,527.64 755.99,529.53 754.75,530.94 C752.92,533.03 753.14,532.95 755.97,530.50 C757.87,528.85 759.97,526.83 760.64,526.00 C760.74,525.87 760.84,525.74 760.93,525.61 C759.93,528.11 758.41,530.20 756.19,532.33 C754.56,533.88 751.94,535.37 750.37,535.64 C748.79,535.90 744.58,536.33 741.00,536.58 C733.12,537.12 729.90,535.85 724.75,530.15 L 721.01 526.00 L 679.75 526.00 C642.46,526.00 638.17,525.83 635.06,524.25 C631.41,522.40 630.82,521.51 622.23,505.00 C609.89,481.30 606.89,474.99 607.50,473.99 C607.98,473.23 612.75,470.59 616.94,468.55 C614.38,469.88 611.91,471.41 611.22,472.23 C610.26,473.39 611.05,473.60 616.01,473.50 C619.28,473.43 621.74,473.59 621.48,473.85 C620.89,474.44 625.24,477.57 626.21,477.25 C626.61,477.13 626.69,477.65 626.40,478.41 C626.10,479.17 626.41,480.14 627.09,480.55 C627.92,481.07 628.05,480.89 627.50,480.00 C626.98,479.16 627.08,478.93 627.78,479.37 C628.38,479.74 628.86,480.82 628.85,481.77 C628.77,487.36 635.47,497.52 638.47,496.37 C639.06,496.15 639.58,495.83 639.84,495.57 C640.26,496.36 640.65,497.09 641.00,497.72 L 645.50 505.94 L 682.87 505.97 L 720.25 506.00 L 724.14 501.58 C724.32,501.38 724.49,501.18 724.67,500.99 C724.35,501.42 724.07,501.87 723.82,502.33 C722.95,503.96 723.12,504.10 725.16,503.46 C726.45,503.06 728.62,501.95 730.00,500.98 ZM 561.60 424.16 C563.60,424.71 566.42,424.85 567.87,424.48 C569.31,424.10 572.51,423.66 574.97,423.50 C577.42,423.33 579.60,422.70 579.80,422.10 C580.05,421.35 586.36,421.03 599.83,421.10 C611.25,421.16 618.45,421.54 617.00,422.00 C615.33,422.54 617.14,422.78 622.50,422.75 C629.27,422.71 629.81,422.59 626.00,422.00 C623.38,421.59 630.19,421.24 642.31,421.15 C657.00,421.04 662.92,421.32 662.45,422.08 C661.46,423.68 693.28,422.05 694.91,420.42 C695.15,420.18 664.38,420.10 626.53,420.24 L 558.45 420.50 C561.03,419.06 568.10,419.00 628.02,419.00 L 695.76 419.00 L 698.44 415.49 C701.10,412.00 704.34,409.73 708.47,408.55 C706.38,409.44 704.01,410.94 702.63,412.31 C700.86,414.06 699.86,415.16 700.41,414.75 C701.96,413.58 703.18,413.87 702.48,415.25 C702.13,415.94 702.74,415.49 703.84,414.25 C704.93,413.01 706.43,412.15 707.16,412.33 C707.90,412.52 708.16,412.48 707.75,412.25 C706.40,411.50 706.96,409.77 708.38,410.32 C709.14,410.61 711.63,410.37 713.91,409.79 C717.30,408.93 718.37,409.02 719.78,410.29 C720.81,411.21 722.54,411.63 724.07,411.33 C725.90,410.98 727.57,411.61 729.83,413.51 C731.58,414.98 732.77,416.57 732.47,417.04 C732.18,417.52 732.97,419.90 734.22,422.33 C736.18,426.13 736.61,426.48 737.24,424.81 C737.51,424.11 737.51,423.10 737.26,422.04 C738.83,426.37 738.85,430.13 737.52,434.61 C737.41,434.96 737.30,435.32 737.18,435.66 C737.31,434.83 737.10,434.29 736.57,434.00 C736.07,433.73 734.71,435.37 733.56,437.66 C732.41,439.95 730.64,442.74 729.64,443.84 C727.86,445.81 727.87,445.85 729.98,445.29 C731.18,444.98 733.21,443.10 734.50,441.11 C734.79,440.67 735.06,440.24 735.31,439.84 C732.14,445.45 727.09,449.07 721.53,450.43 C721.77,450.25 721.84,450.03 721.75,449.75 C721.50,448.99 720.05,448.63 718.05,448.84 C715.88,449.06 715.00,448.81 715.45,448.09 C715.82,447.49 715.53,446.99 714.81,446.99 C712.45,446.96 702.17,441.26 698.80,438.10 L 695.50 435.01 L 673.00 435.10 C660.62,435.16 651.62,435.52 653.00,435.92 C654.38,436.31 644.81,436.68 631.75,436.73 C618.48,436.78 607.76,436.42 607.44,435.91 C607.13,435.41 601.27,435.00 594.42,435.00 L 581.95 435.00 L 580.90 432.25 C579.89,429.59 579.80,429.57 578.43,431.44 C577.64,432.51 577.00,433.70 577.00,434.10 C577.00,434.49 576.09,434.57 574.97,434.28 C573.78,433.97 572.11,434.49 570.97,435.53 C568.86,437.43 564.00,446.99 564.00,449.22 C564.00,450.81 560.42,454.09 559.58,453.25 C559.26,452.93 559.00,453.19 559.00,453.83 C559.00,456.05 554.97,455.05 554.04,452.60 C553.54,451.29 552.65,450.05 552.05,449.85 C551.30,449.60 551.25,446.79 551.90,440.50 C552.40,435.55 552.70,431.38 552.57,431.24 C552.37,431.04 537.61,466.59 521.89,504.99 C529.48,486.37 539.43,462.17 543.50,452.50 C545.34,448.10 548.05,441.35 549.51,437.50 C553.46,427.12 554.87,423.88 556.68,421.96 L 555.94 423.00 C554.96,424.38 553.86,426.62 553.49,428.00 C552.95,430.04 553.29,429.83 555.40,426.83 C557.87,423.29 558.11,423.19 561.60,424.16 ZM 479.75 667.52 C479.75,665.95 479.34,665.28 478.62,665.71 C477.89,666.15 477.91,665.88 478.69,664.91 C479.47,663.95 479.56,662.92 478.96,661.97 C478.45,661.16 478.02,659.52 478.02,658.32 C478.01,657.12 477.27,655.41 476.38,654.52 C472.91,651.06 477.35,640.72 483.13,638.79 C483.94,638.52 484.04,637.90 483.43,636.94 C482.34,635.22 482.10,630.94 483.14,631.58 C483.53,631.83 484.19,631.51 484.59,630.86 C485.04,630.13 484.88,629.96 484.15,630.40 C481.70,631.92 483.15,629.03 485.75,627.23 C489.94,624.33 491.51,624.03 494.48,625.57 C496.24,626.49 498.58,626.77 501.07,626.37 L 504.93 625.76 L 504.06 628.80 C503.12,632.07 503.50,633.00 505.77,633.00 C507.88,633.00 512.99,627.14 512.34,625.45 C512.04,624.65 512.31,624.00 512.95,624.00 C513.59,624.00 513.81,623.51 513.44,622.90 C512.96,622.12 513.30,622.09 514.64,622.81 C517.16,624.16 525.84,625.06 526.47,624.04 C526.67,623.72 525.58,622.86 523.83,621.91 C530.30,625.13 534.66,629.64 538.06,636.54 C538.69,637.81 539.16,638.90 539.51,640.03 C537.86,635.21 531.77,627.91 529.53,628.08 C528.96,628.12 529.07,628.39 529.76,628.66 C530.45,628.94 530.76,629.58 530.45,630.09 C530.14,630.59 530.39,631.00 531.00,631.00 C531.62,631.00 531.78,631.54 531.37,632.21 C530.12,634.24 530.09,637.76 531.33,637.63 C531.97,637.56 532.57,637.90 532.66,638.39 C532.76,638.88 533.43,639.67 534.16,640.16 C535.24,640.86 535.15,641.24 533.75,642.07 C532.79,642.64 532.03,644.09 532.07,645.30 L 532.14 647.50 L 533.22 645.25 C534.50,642.59 535.31,642.46 537.43,644.57 C539.11,646.26 539.70,656.00 538.12,656.00 C537.01,656.00 535.09,660.59 534.57,664.50 C534.35,666.15 533.86,668.29 533.47,669.26 C532.95,670.59 533.16,670.88 534.34,670.42 C535.20,670.09 536.93,667.72 538.19,665.16 C539.07,663.37 539.74,661.11 540.21,658.64 C539.87,661.38 539.18,663.23 537.78,666.13 C534.35,673.21 526.69,680.22 519.41,682.95 C522.74,681.70 525.51,679.88 526.58,678.23 L 528.34 675.54 L 525.71 677.27 C522.79,679.18 521.58,679.48 522.45,678.08 C522.79,677.53 521.92,677.54 520.26,678.09 C518.74,678.60 515.59,679.48 513.25,680.04 C510.91,680.61 509.00,681.51 509.00,682.04 C509.00,682.57 506.98,683.00 504.50,683.00 C502.02,683.00 500.00,683.45 500.00,684.00 C500.00,684.09 500.03,684.17 500.09,684.25 C499.09,684.05 498.11,683.81 497.17,683.53 C497.51,683.61 497.94,683.53 498.32,683.29 C499.14,682.78 498.98,682.44 497.81,682.21 C496.71,681.99 496.33,681.31 496.73,680.27 C497.18,679.09 496.97,678.89 495.92,679.53 C494.78,680.21 494.80,680.01 496.00,678.50 C496.87,677.40 496.98,676.93 496.25,677.37 C495.55,677.79 495.00,677.63 495.00,677.00 C495.00,676.39 494.53,676.17 493.96,676.53 C493.38,676.88 492.26,676.63 491.46,675.96 C490.30,675.01 490.00,675.04 489.98,676.13 C489.97,677.25 489.82,677.26 489.13,676.18 C488.67,675.45 486.99,674.71 485.40,674.54 L 483.01 674.28 C481.31,672.56 479.78,670.74 478.57,668.95 C479.66,670.48 479.75,670.03 479.75,667.52 ZM 509.25 260.00 C661.47,260.00 785.80,259.76 785.80,259.47 L 785.80 259.47 C785.51,259.18 680.14,258.95 551.64,258.95 C423.14,258.96 318.00,258.63 318.00,258.22 C318.00,257.81 315.08,257.34 311.50,257.18 C307.43,257.00 305.00,257.29 305.00,257.95 C305.00,258.66 295.36,258.95 274.75,258.86 C258.11,258.78 246.30,258.43 248.50,258.08 L 252.50 257.45 L 248.11 256.80 C244.32,256.24 241.33,254.34 242.46,253.20 C242.90,252.77 245.91,252.18 248.25,252.08 C251.28,251.94 250.15,249.19 246.75,248.42 C241.91,247.33 238.00,247.21 238.00,248.16 C238.00,248.62 235.52,249.00 232.50,249.00 C229.48,249.00 227.00,249.44 227.00,249.99 C227.00,250.53 228.86,252.15 231.14,253.59 C234.07,255.44 234.91,256.44 234.00,257.00 C233.04,257.59 233.20,257.92 234.60,258.28 C235.95,258.63 235.70,258.80 233.75,258.88 C231.81,258.97 231.02,259.51 231.08,260.75 C231.13,261.80 231.36,262.00 231.66,261.25 C232.06,260.25 288.52,260.00 509.25,260.00 ZM 551.26 485.42 C553.25,479.80 552.32,479.05 548.52,482.57 C545.36,485.50 543.83,485.33 542.88,481.93 C542.50,480.59 542.15,480.06 542.10,480.75 C542.04,481.44 541.30,482.00 540.44,482.00 C539.58,482.00 539.11,482.38 539.40,482.83 C539.68,483.29 539.26,483.67 538.46,483.67 C536.89,483.67 536.43,480.47 537.87,479.58 C538.82,478.99 540.40,473.12 540.05,471.50 C539.93,470.95 540.13,468.13 540.49,465.22 C541.01,461.08 541.70,459.59 543.70,458.28 C546.11,456.70 546.32,456.71 547.66,458.55 C548.67,459.93 549.29,460.15 549.82,459.30 C550.27,458.57 551.09,458.44 551.94,458.96 C552.70,459.43 553.97,459.56 554.77,459.26 C555.92,458.82 556.06,459.22 555.46,461.10 C555.04,462.42 554.57,465.15 554.43,467.16 C554.28,469.18 553.74,471.66 553.22,472.66 C552.14,474.75 552.66,477.00 554.21,477.00 C554.83,477.00 554.74,476.39 553.98,475.48 C552.94,474.23 552.97,474.05 554.15,474.50 C555.19,474.90 556.70,472.28 559.75,464.78 C562.04,459.12 564.05,453.83 564.21,453.00 C564.37,452.17 564.73,451.27 565.02,451.00 C565.29,450.74 565.58,450.30 565.87,449.75 L 565.67 450.25 C563.17,456.44 558.34,468.25 554.94,476.50 C553.77,479.33 552.50,482.42 551.26,485.42 ZM 304.20 595.83 C351.91,596.54 371.45,596.97 382.59,597.57 L 394.69 598.22 L 397.34 595.57 C398.80,594.10 399.99,592.37 399.97,591.70 C399.95,591.04 399.48,591.29 398.92,592.25 C397.97,593.88 394.13,594.00 340.95,594.00 L 284.00 594.00 L 284.02 596.25 C284.03,598.03 284.23,598.19 284.96,597.03 C285.74,595.80 288.95,595.60 304.20,595.83 ZM 406.52 583.73 C407.06,582.50 408.45,581.45 409.61,581.39 C410.78,581.33 412.35,580.92 413.11,580.48 C413.88,580.04 414.20,580.01 413.83,580.42 C412.59,581.81 415.12,587.00 417.04,587.00 C421.01,587.00 420.33,583.42 415.42,578.51 C412.50,575.60 412.99,573.39 416.18,575.10 C417.68,575.90 418.05,575.90 417.56,575.10 C417.19,574.49 417.36,574.00 417.94,574.00 C418.52,574.00 418.95,573.66 418.88,573.25 C418.46,570.59 419.16,566.98 419.99,567.49 C420.53,567.83 420.76,567.52 420.50,566.80 C420.23,566.09 421.62,563.70 423.58,561.50 C425.54,559.30 426.82,558.17 426.43,559.00 C425.80,560.33 425.89,560.33 427.26,559.00 C428.11,558.17 429.09,555.92 429.44,554.00 L 430.09 550.50 L 427.46 553.50 C426.01,555.15 423.41,558.56 421.67,561.09 C419.92,563.61 415.32,569.91 411.43,575.09 C402.98,586.32 402.47,587.14 404.22,586.47 C404.95,586.19 405.98,584.96 406.52,583.73 ZM 664.42 507.87 C663.73,506.75 689.92,507.17 709.00,508.59 C714.87,509.03 716.93,508.82 718.50,507.61 C720.31,506.21 716.87,506.06 681.63,506.03 C647.19,506.00 642.90,506.17 644.00,507.50 C645.58,509.40 665.59,509.76 664.42,507.87 ZM 473.19 457.23 C472.53,457.01 472.24,456.42 472.55,455.91 C472.86,455.41 472.67,455.00 472.12,455.00 C471.57,455.00 471.18,454.21 471.24,453.25 C471.40,451.04 461.88,427.00 460.85,427.00 C459.10,427.00 458.80,434.19 460.38,438.33 C461.27,440.66 462.00,443.34 462.00,444.28 C462.00,445.23 462.48,446.00 463.07,446.00 C464.32,446.00 466.54,448.05 466.87,449.50 C466.99,450.05 467.86,451.52 468.80,452.77 C469.73,454.01 470.38,455.26 470.23,455.54 C469.72,456.48 472.50,458.79 473.45,458.21 C473.99,457.88 473.88,457.46 473.19,457.23 ZM 530.39 533.84 C530.17,533.47 530.43,533.02 530.97,532.84 C532.35,532.36 542.02,508.13 541.06,507.54 C540.21,507.01 536.56,510.86 533.71,515.28 C532.72,516.81 531.58,517.86 531.18,517.61 C530.77,517.36 530.41,519.71 530.38,522.83 C530.31,528.76 529.79,532.16 528.43,535.47 C527.71,537.22 527.79,537.28 529.20,535.97 C530.08,535.16 530.61,534.20 530.39,533.84 ZM 395.66 453.75 C399.67,443.86 400.17,441.14 397.68,442.72 C397.03,443.13 396.07,443.48 395.54,443.48 C395.01,443.49 394.16,444.96 393.64,446.75 C393.13,448.54 392.18,450.00 391.52,450.00 C390.19,450.00 390.12,450.25 389.36,458.25 C388.50,467.30 390.86,465.61 395.66,453.75 ZM 830.77 523.31 L 830.76 513.97 C830.55,315.77 830.46,279.92 829.33,271.11 L 831.05 276.50 L 830.77 517.52 ZM 350.56 507.53 C352.29,506.23 350.19,506.06 331.58,506.03 C311.43,506.00 305.96,506.82 317.83,508.10 C320.95,508.43 329.15,508.77 336.06,508.85 C345.73,508.97 349.06,508.66 350.56,507.53 ZM 373.55 507.09 C373.24,506.58 373.38,506.02 373.87,505.84 C375.12,505.36 382.90,485.68 382.26,484.63 C380.88,482.36 374.11,493.06 374.86,496.32 C374.96,496.78 374.64,496.89 374.13,496.58 C373.62,496.27 372.90,496.80 372.52,497.76 C371.22,501.01 370.98,503.87 371.95,504.47 C372.48,504.80 372.66,505.72 372.35,506.53 C372.04,507.34 372.31,508.00 372.95,508.00 C373.59,508.00 373.86,507.59 373.55,507.09 ZM 485.98 531.91 C485.24,528.00 484.14,524.61 483.54,524.38 C482.93,524.14 482.34,522.81 482.22,521.42 C481.99,518.65 479.48,514.81 476.76,513.10 C475.16,512.09 475.17,512.36 476.91,516.75 C484.11,534.94 486.31,540.02 486.78,539.55 C487.08,539.25 486.72,535.81 485.98,531.91 ZM 213.14 372.34 C213.13,406.39 213.17,452.87 213.24,516.50 L 213.47 728.67 C213.10,700.02 213.00,638.84 213.00,513.85 C213.00,455.78 213.05,408.70 213.14,372.34 ZM 441.42 425.25 C440.99,417.31 438.39,408.38 436.24,407.45 C433.19,406.13 431.83,406.12 432.33,407.41 C433.92,411.57 441.28,429.00 441.44,429.00 C441.54,429.00 441.54,427.31 441.42,425.25 ZM 471.27 493.28 C471.51,490.41 471.35,488.28 470.92,488.55 C470.49,488.81 469.89,488.22 469.57,487.23 C469.26,486.24 467.67,484.64 466.03,483.68 L 463.06 481.92 L 464.41 485.75 C466.75,492.36 470.38,500.37 470.62,499.42 C470.74,498.91 471.03,496.15 471.27,493.28 ZM 426.02 588.18 C430.14,582.82 430.87,579.96 427.94,580.73 C426.83,581.02 426.09,581.76 426.29,582.37 C426.77,583.81 425.00,585.55 422.13,586.46 C420.67,586.92 420.06,587.71 420.42,588.65 C420.73,589.46 420.28,591.50 419.41,593.17 L 417.84 596.22 L 420.23 594.41 C421.55,593.41 424.16,590.61 426.02,588.18 ZM 524.59 550.24 C527.92,541.08 526.05,539.95 521.08,548.11 C519.06,551.42 518.40,555.06 519.60,556.26 C520.97,557.64 522.63,555.64 524.59,550.24 ZM 211.40 264.07 C212.35,263.29 213.77,261.42 214.54,259.92 C215.76,257.56 215.75,257.04 214.47,255.98 C213.57,255.23 213.00,255.16 213.00,255.79 C213.00,256.37 213.56,257.09 214.25,257.41 C214.94,257.72 214.51,257.74 213.31,257.44 C211.77,257.06 210.80,257.51 210.01,258.97 C209.41,260.11 209.15,261.43 209.44,261.91 C209.74,262.38 209.28,263.35 208.43,264.05 C206.21,265.90 204.80,268.87 205.56,270.10 C205.95,270.72 206.94,269.99 207.95,268.33 C208.90,266.77 210.45,264.86 211.40,264.07 ZM 571.27 561.25 C570.91,560.29 570.04,558.92 569.35,558.22 C568.65,557.52 568.32,556.33 568.61,555.57 C569.26,553.89 564.94,550.66 563.69,551.91 C563.18,552.42 564.40,554.93 566.62,557.90 C570.44,563.02 572.51,564.51 571.27,561.25 ZM 822.57 286.57 C824.30,284.85 824.36,283.55 822.87,280.75 C821.77,278.71 821.69,278.70 820.37,280.51 C818.75,282.73 818.54,288.00 820.07,288.00 C820.66,288.00 821.79,287.36 822.57,286.57 ZM 213.00 781.43 C213.00,780.35 210.69,776.49 209.60,775.76 C209.00,775.35 207.99,775.21 207.37,775.43 C206.76,775.66 206.31,775.09 206.37,774.17 C206.45,773.10 205.87,772.61 204.75,772.79 C203.64,772.98 202.97,772.43 202.92,771.29 C202.87,770.09 202.67,769.94 202.31,770.85 C202.00,771.61 203.87,774.33 206.60,777.10 C211.01,781.58 213.00,782.93 213.00,781.43 ZM 624.47 504.82 C624.24,503.63 623.59,502.19 623.02,501.62 C622.46,501.06 622.00,499.49 622.00,498.13 C622.00,496.78 621.70,495.96 621.34,496.32 C620.98,496.69 620.08,496.48 619.34,495.87 C617.15,494.05 617.70,496.46 620.75,501.99 C623.67,507.28 625.16,508.41 624.47,504.82 ZM 398.17 409.25 C397.08,407.11 399.08,401.79 400.60,402.80 C401.47,403.39 401.60,405.45 401.08,410.25 C400.93,411.65 399.08,411.01 398.17,409.25 ZM 574.84 439.00 C582.38,438.67 599.35,438.63 632.80,438.77 L 686.11 439.00 ZM 421.85 387.09 C422.96,383.82 422.93,383.75 421.17,385.34 C420.16,386.26 419.15,386.82 418.92,386.59 C418.69,386.36 418.44,387.96 418.37,390.14 C418.25,393.57 418.40,393.87 419.46,392.31 C420.13,391.31 421.21,388.97 421.85,387.09 ZM 372.60 482.53 C372.24,481.09 371.50,480.19 370.97,480.52 C369.86,481.20 369.66,485.32 370.68,486.35 C371.99,487.65 373.25,485.13 372.60,482.53 ZM 421.49 350.48 C423.73,349.88 424.93,350.08 427.63,351.10 C428.17,351.30 428.62,351.44 429.05,351.65 C430.56,352.37 431.72,353.85 434.99,361.42 C434.11,359.53 433.32,358.04 432.82,357.41 C428.06,351.44 425.58,349.81 422.15,350.36 C421.93,350.40 421.70,350.44 421.49,350.48 ZM 474.14 647.77 C474.37,644.53 474.95,641.46 475.91,638.92 C478.76,631.37 484.00,625.54 491.37,621.75 C491.63,621.62 491.89,621.49 492.14,621.36 C485.40,625.14 478.20,632.85 475.99,638.77 C475.00,641.40 474.39,644.52 474.14,647.77 ZM 726.24 409.14 C730.11,410.66 732.94,413.36 735.15,417.43 C735.52,418.11 735.86,418.77 736.16,419.42 C734.19,416.26 728.83,410.66 726.24,409.14 ZM 306.84 529.50 L 306.21 530.20 C303.50,533.20 300.48,535.34 297.30,536.60 C297.65,536.28 297.80,535.93 297.68,535.62 C297.44,534.99 298.39,534.43 299.85,534.34 C301.45,534.24 304.56,531.87 306.84,529.50 ZM 221.99 786.93 C226.42,787.67 235.96,788.12 258.46,788.40 C234.71,788.22 225.37,787.95 224.00,787.56 C223.32,787.37 222.65,787.16 221.99,786.93 ZM 639.59 495.12 C639.27,495.13 638.79,495.25 638.25,495.45 C636.93,495.96 636.78,495.83 637.65,494.96 C638.39,494.21 637.40,491.35 633.65,483.86 C635.72,487.84 637.90,491.97 639.59,495.12 ZM 389.20 450.08 C388.78,448.97 388.48,449.08 387.90,450.57 C386.73,453.54 386.87,454.20 388.37,452.79 C389.13,452.09 389.50,450.87 389.20,450.08 ZM 460.00 426.50 C461.02,425.27 460.95,425.00 459.62,425.00 C458.73,425.00 458.00,425.67 458.00,426.50 C458.00,427.33 458.17,428.00 458.38,428.00 C458.59,428.00 459.32,427.33 460.00,426.50 ZM 441.77 548.19 C442.01,547.46 441.56,547.23 440.58,547.61 C439.71,547.94 439.00,548.65 439.00,549.19 C439.00,550.50 441.27,549.68 441.77,548.19 ZM 487.08 490.03 C488.44,493.37 489.75,496.61 491.01,499.70 C489.98,497.48 489.11,496.00 488.78,496.00 C488.29,496.00 488.12,495.62 488.40,495.16 C488.63,494.79 488.07,492.81 487.08,490.03 ZM 567.09 446.72 C567.49,445.44 567.68,444.29 567.45,443.93 C567.14,443.42 567.39,443.00 568.00,443.00 C568.61,443.00 568.84,442.55 568.50,442.00 C568.16,441.45 568.41,441.00 569.05,441.00 C569.20,441.00 569.33,440.97 569.43,440.92 ZM 215.38 755.32 L 215.75 756.06 C216.93,758.45 218.32,760.53 219.91,762.28 C217.90,760.39 216.29,758.63 216.10,757.94 C215.99,757.53 215.72,756.55 215.38,755.32 ZM 383.87 430.29 C389.98,415.15 390.23,414.53 391.09,412.50 C392.70,408.65 394.49,404.29 396.19,400.12 L 396.04 400.50 C393.20,407.65 389.82,415.98 388.51,419.00 C387.97,420.25 386.26,424.43 383.87,430.29 ZM 491.64 681.10 C492.27,681.40 492.83,681.62 493.27,681.70 C494.79,682.01 496.29,682.66 496.59,683.15 C496.69,683.30 496.83,683.41 497.00,683.48 C496.40,683.30 495.82,683.10 495.26,682.88 C494.10,682.43 492.88,681.83 491.64,681.10 ZM 269.04 521.35 C268.37,519.28 268.00,517.19 268.00,515.25 C268.00,513.50 268.32,511.69 268.88,509.89 C267.96,513.71 268.05,517.78 269.04,521.35 ZM 717.69 450.99 C711.60,451.32 705.27,449.00 700.34,443.68 C704.72,448.39 710.59,451.00 716.90,451.00 C717.18,451.00 717.44,451.00 717.69,450.99 ZM 512.45 618.62 C515.56,618.78 517.49,619.19 519.97,620.18 C517.78,619.43 515.19,618.91 512.45,618.62 ZM 508.54 684.93 C512.36,684.65 516.58,683.98 519.25,683.01 C516.04,684.18 512.32,684.82 508.54,684.93 ZM 514.22 572.94 L 514.23 572.92 C513.85,573.44 513.50,573.82 513.20,574.06 C512.32,574.75 511.03,575.32 509.65,575.66 C511.31,575.15 512.92,574.24 514.22,572.94 ZM 494.51 620.23 C496.70,619.28 498.45,618.87 501.25,618.69 C498.73,619.00 496.40,619.51 494.51,620.23 ZM 629.88 476.55 C626.63,470.53 623.82,466.02 623.22,466.02 C623.17,466.02 623.13,466.02 623.08,466.02 C623.13,466.02 623.18,466.01 623.23,466.01 C623.88,466.02 626.80,470.66 629.88,476.55 ZM 291.78 537.91 C290.12,538.05 288.44,537.96 286.77,537.65 C288.34,537.88 290.09,537.98 291.78,537.91 ZM 736.82 494.37 C734.80,494.71 732.90,495.27 731.19,496.03 C732.92,495.20 734.78,494.66 736.82,494.37 ZM 576.22 537.97 L 573.84 535.04 L 573.89 535.00 ZM 569.81 440.00 C569.79,439.92 569.77,439.83 569.73,439.75 C569.70,439.65 569.78,439.57 570.01,439.49 ZM 822.04 257.18 C822.63,257.89 823.19,258.63 823.73,259.39 C823.29,258.78 822.77,258.09 822.13,257.28 C822.10,257.25 822.07,257.21 822.04,257.18 ZM 271.83 503.77 C272.09,503.37 272.36,502.99 272.63,502.61 C272.36,502.99 272.09,503.38 271.83,503.77 Z" fill="rgb(28,47,70)"/>
<path d="M 810.08 754.47 L 810.48 721.25 C810.70,702.69 810.96,685.70 811.06,683.50 C811.15,681.30 811.07,588.56 810.87,477.41 L 810.51 278.97 C810.67,279.78 810.82,280.62 810.95,281.51 C812.12,289.59 812.35,658.11 811.45,736.96 C811.25,747.11 810.98,751.36 810.63,753.10 C810.46,753.56 810.28,754.02 810.08,754.47 ZM 410.20 418.00 C409.25,420.36 408.18,423.01 407.03,425.85 C408.90,421.19 410.55,417.08 411.99,413.46 C412.29,412.73 412.58,412.01 412.86,411.30 L 412.86 411.29 C417.65,399.25 419.94,393.20 420.65,390.82 C421.54,387.80 422.65,386.00 423.60,386.00 C424.43,386.00 424.84,386.45 424.50,387.00 C424.16,387.55 424.30,388.00 424.82,388.00 C425.33,388.00 425.77,389.01 425.80,390.25 C425.82,391.05 426.51,393.33 427.54,396.10 C423.98,388.16 423.21,388.75 421.65,391.14 C420.79,392.44 415.64,404.53 410.20,418.00 ZM 366.43 523.00 L 363.96 525.50 L 366.41 523.00 C367.62,521.77 370.95,514.86 374.40,506.54 C374.19,507.07 374.00,507.56 373.82,508.00 C371.11,514.88 367.78,521.62 366.43,523.00 ZM 800.71 264.69 C802.52,265.83 804.05,267.04 805.32,268.37 L 805.48 268.54 C805.92,269.04 806.37,269.58 806.81,270.14 C805.14,268.17 802.65,265.92 800.71,264.69 ZM 809.10 756.49 C808.35,757.88 807.47,759.22 806.50,760.45 C806.65,760.24 806.80,760.02 806.94,759.79 ZM 436.97 419.15 C437.36,420.13 437.74,421.09 438.11,422.00 C440.84,428.87 444.62,438.10 446.52,442.50 C444.62,438.10 440.84,428.87 438.10,422.00 C437.71,421.02 437.33,420.07 436.97,419.15 Z" fill="rgb(152,162,172)"/>
<path d="M 0.00 512.00 L 0.00 0.00 L 512.00 0.00 L 1024.00 0.00 L 1024.00 512.00 L 1024.00 1024.00 L 512.00 1024.00 L 0.00 1024.00 L 0.00 512.00 ZM 807.27 785.19 C816.10,780.84 822.80,774.19 827.07,765.51 L 830.50 758.54 L 830.77 517.52 L 831.05 276.50 L 828.95 269.91 C825.01,257.55 815.13,247.97 802.19,243.98 C795.88,242.03 791.82,242.00 513.44,242.00 C310.61,242.00 229.61,242.31 225.80,243.11 C209.35,246.55 196.65,260.35 193.99,277.68 C193.28,282.32 193.03,359.50 193.22,519.50 L 193.50 754.50 L 195.63 760.70 C200.03,773.51 210.98,783.88 224.00,787.56 C227.60,788.58 285.78,788.80 514.52,788.66 L 800.54 788.50 L 807.27 785.19 ZM 227.64 767.54 C222.68,765.77 218.58,761.81 215.75,756.06 L 213.50 751.50 L 213.24 516.50 C212.99,294.68 213.08,281.23 214.73,276.63 C216.89,270.61 222.60,264.74 227.78,263.18 C230.72,262.30 301.57,262.01 514.05,261.99 L 796.41 261.97 L 800.71 264.69 C803.07,266.18 806.24,269.19 807.75,271.37 L 810.50 275.33 L 810.87 477.41 C811.07,588.56 811.15,681.30 811.06,683.50 C810.96,685.70 810.70,702.69 810.48,721.25 L 810.08 755.00 L 806.94 759.79 C804.63,763.32 802.50,765.16 798.83,766.79 L 793.84 769.00 L 512.67 768.96 C276.52,768.92 230.88,768.69 227.64,767.54 ZM 519.41 682.95 C526.69,680.22 534.35,673.21 537.78,666.13 C540.15,661.21 540.50,659.30 540.50,651.00 C540.50,642.95 540.13,640.74 538.06,636.54 C534.48,629.27 529.82,624.65 522.76,621.39 C517.21,618.83 515.42,618.51 507.00,618.55 C498.35,618.59 496.95,618.88 491.37,621.75 C484.00,625.54 478.76,631.37 475.91,638.92 C473.00,646.65 473.52,659.34 477.03,666.36 C480.20,672.69 488.64,680.34 495.26,682.88 C502.35,685.61 512.23,685.63 519.41,682.95 ZM 748.50 624.88 C757.57,622.36 764.72,610.51 763.32,600.31 C762.49,594.23 757.54,587.01 752.53,584.56 C742.83,579.83 730.61,582.00 724.26,589.59 L 720.58 594.00 L 669.98 594.00 L 619.37 594.00 L 616.83 591.25 C615.43,589.74 609.20,581.75 602.98,573.50 C596.76,565.25 590.84,557.91 589.83,557.19 C588.83,556.47 588.00,555.19 588.00,554.33 C588.00,553.47 586.85,551.36 585.45,549.64 C584.05,547.91 580.87,543.91 578.40,540.75 L 573.89 535.00 L 566.20 540.65 C561.96,543.75 558.35,546.41 558.17,546.56 C557.99,546.71 560.46,550.17 563.67,554.25 C566.88,558.33 574.90,568.98 581.50,577.92 C603.18,607.26 606.47,611.43 609.00,612.71 C610.92,613.68 624.13,613.97 666.28,613.99 L 721.06 614.00 L 724.28 617.67 C728.02,621.93 735.97,625.86 741.00,625.94 C742.92,625.97 746.30,625.49 748.50,624.88 ZM 405.18 612.69 C405.91,611.98 407.24,611.11 408.14,610.77 C409.52,610.25 419.24,598.39 422.50,593.25 C423.05,592.38 426.99,587.15 431.25,581.61 C435.51,576.08 439.00,570.97 439.00,570.27 C439.00,569.57 439.41,569.00 439.91,569.00 C440.41,569.00 442.97,565.96 445.60,562.25 C448.22,558.54 451.86,553.73 453.69,551.57 C455.51,549.41 457.00,547.15 457.00,546.55 C457.00,545.96 454.86,544.01 452.25,542.23 C449.64,540.45 446.28,538.02 444.80,536.84 C441.46,534.17 441.22,534.35 433.39,545.08 C412.73,573.38 397.69,592.57 395.72,593.15 C394.50,593.51 368.64,593.85 338.25,593.90 L 283.00 594.00 L 283.00 603.33 C283.00,608.47 283.30,612.97 283.67,613.33 C284.03,613.70 311.23,614.00 344.10,614.00 C391.93,614.00 404.12,613.74 405.18,612.69 ZM 513.20 574.06 C514.61,572.95 517.21,568.35 519.27,563.31 C521.25,558.46 527.23,543.92 532.55,531.00 C537.88,518.08 543.70,503.90 545.49,499.50 C547.28,495.10 551.53,484.75 554.94,476.50 C558.34,468.25 563.17,456.44 565.67,450.25 L 570.21 439.00 L 633.26 439.00 L 696.31 439.00 L 699.66 442.91 C711.49,456.74 732.27,452.18 737.52,434.61 C739.30,428.62 738.65,423.91 735.15,417.43 C731.41,410.52 725.86,407.58 716.50,407.56 C708.22,407.55 702.62,410.00 698.44,415.49 L 695.76 419.00 L 628.02 419.00 C562.64,419.00 560.18,419.07 557.82,420.93 C555.33,422.89 554.23,425.07 549.51,437.50 C548.05,441.35 545.34,448.10 543.50,452.50 C537.91,465.78 521.21,506.52 514.79,522.50 C511.48,530.75 508.58,537.71 508.34,537.96 C507.79,538.55 503.04,533.02 502.87,531.59 C502.80,530.99 502.64,529.58 502.52,528.46 C502.39,527.33 501.83,525.53 501.26,524.46 C500.69,523.38 494.03,507.20 486.46,488.50 C468.07,443.03 461.53,426.98 459.77,422.91 C458.95,421.03 455.45,412.35 451.98,403.61 C430.94,350.66 431.89,352.70 427.63,351.10 C424.27,349.83 423.23,349.83 419.63,351.07 C415.61,352.46 415.37,352.81 410.95,363.50 C408.45,369.55 405.64,376.24 404.70,378.37 C403.77,380.50 403.00,382.53 403.00,382.87 C403.00,383.37 396.13,400.45 391.09,412.50 C390.06,414.95 389.90,415.34 379.37,441.44 C374.70,453.02 370.27,463.85 369.53,465.50 C368.79,467.15 366.54,472.77 364.54,478.00 C362.53,483.23 359.07,491.66 356.84,496.75 L 352.78 506.00 L 331.64 505.99 L 310.50 505.99 L 308.09 502.45 C303.41,495.57 292.35,492.40 282.50,495.11 C275.08,497.15 268.00,506.98 268.00,515.25 C268.00,521.00 271.29,528.08 275.80,532.06 C285.48,540.58 297.52,539.84 306.21,530.20 L 309.91 526.09 L 336.93 525.80 L 363.96 525.50 L 366.43 523.00 C367.78,521.62 371.11,514.88 373.82,508.00 C376.53,501.12 383.60,483.58 389.52,469.00 C395.45,454.42 404.75,431.48 410.20,418.00 C415.64,404.53 420.79,392.44 421.65,391.14 C424.17,387.28 424.62,388.12 438.10,422.00 C440.84,428.88 444.62,438.10 446.52,442.50 C448.41,446.90 452.71,457.48 456.07,466.00 C459.43,474.52 462.99,483.30 463.98,485.50 C464.97,487.70 466.67,491.75 467.77,494.50 C468.86,497.25 471.42,503.55 473.45,508.50 C475.48,513.45 480.52,526.04 484.65,536.48 C488.78,546.92 492.76,556.60 493.49,557.98 C494.22,559.37 495.57,562.66 496.50,565.29 C499.09,572.61 502.40,576.00 506.95,576.00 C509.18,576.00 511.74,575.20 513.20,574.06 ZM 750.37 535.64 C751.94,535.37 754.56,533.88 756.19,532.33 C760.92,527.79 762.50,523.43 762.50,514.84 C762.50,507.93 762.20,506.75 759.49,502.88 C755.44,497.13 751.25,494.87 743.46,494.24 C734.94,493.56 729.32,495.69 724.14,501.58 L 720.25 506.00 L 682.87 505.97 L 645.50 505.94 L 641.00 497.72 C638.53,493.20 633.80,484.21 630.50,477.76 C627.20,471.31 623.93,466.02 623.23,466.01 C621.49,466.00 608.31,472.69 607.50,473.99 C606.89,474.99 609.89,481.30 622.23,505.00 C630.82,521.51 631.41,522.40 635.06,524.25 C638.17,525.83 642.46,526.00 679.75,526.00 L 721.01 526.00 L 724.75 530.15 C729.90,535.85 733.12,537.12 741.00,536.58 C744.58,536.33 748.79,535.90 750.37,535.64 Z" fill="rgb(254,254,254)"/>
</g>
</svg>